<?xml version="1.0" encoding="UTF-8" standalone="no"?><svg xmlns="http://www.w3.org/2000/svg" viewBox="0 0 285.38 288.82"><defs><style>.cls-1{fill:#5bc3e8;}.cls-2{fill:#202020;}.cls-3{fill:#252425;}.cls-4{fill:#64c5e7;}.cls-5{fill:#9cb2bf;}.cls-6{fill:#fff;}</style></defs><g id="Слой_2" data-name="Слой 2"><g id="Слой_1-2" data-name="Слой 1"><path class="cls-1" d="M109.34,196.76c1.47,1.92-.21,3.45-.74,5-4.63,13.56-6.31,27.26-2.37,41.31,2.39,8.54,6,11.42,14.68,11.32,14.08-.16,28.16-.43,42.23-.53,2.49,0,3.85-.59,4.63-3.22,4.17-14.12,13.74-23.88,26.08-31.18,2.79-1.65,3.81-2.9,2.78-6.56-4.13-14.62-7.82-29.38-11.34-44.17-.93-3.89-2.72-4.75-6.15-3.65-1.57.5-3.14,1.05-4.73,1.48a3.82,3.82,0,0,1-5.07-2.76c-.71-2.32,0-4.18,2.68-5s5.35-1.74,8-2.77c4.11-1.61,8.62-2.76,9.82-8a2.29,2.29,0,0,1,.94-1.14c2.9-2.1,5.57-6.52,8.9-5.44s1.18,5.84,1.43,8.94c.35,4.29.1,8.63.09,12.94,0,6-.14,6.13-6.2,3.83,5.66,19.69,11.24,39,16.71,58.35.61,2.17,1.75,2.87,3.83,3a31.52,31.52,0,0,1,28.79,28.61c.17,2.46-.26,4.14-2.3,5.42H180.12c-3.36-1.66-2.16-4.79-1.62-7,2.66-11,8.81-19.35,19.28-24.24,1.39-.65,4.37-.62,2.88-3.38-1.35-2.52-3.13-.57-4.54.33-10.75,6.83-18.2,16.08-20.71,28.81-.51,2.55-1.06,4.88-4,5.57l-157.93,0c-2.75-.64-2.9-2.73-2.89-5,.06-14.14,5.27-26.33,14-37.17,1.56-1.93,3.53-2.52,6.14-2.31a139.22,139.22,0,0,0,14.87.35c6.62-.18,9-2.93,8.93-9.59,0-1.33.12-2.67,0-4-.6-5.16,1.81-7.76,6.81-8.28Z"/><path class="cls-2" d="M122.3,81.7c7,11.9,13.55,24,21.14,35.32,2.83,4.24,9,5.25,13.61,7.85,7.21,4.07,14.65,7.73,21.95,11.63,5.61,3,7.54,8.1,5.1,13.17-2.66,5.49-8.29,7.45-14.09,4.5-12.7-6.45-25.31-13.09-37.95-19.66a12.8,12.8,0,0,1-5.07-5.29c-5.34-9.14-10.77-18.23-16.19-27.33-.67-1.13-1.4-2.24-2.17-3.31a1.25,1.25,0,0,0-1.76-.31,1.23,1.23,0,0,0-.32,1.75c.6,1.18,1.25,2.32,1.92,3.46,4.45,7.55,8.87,15.12,13.41,22.62a7.13,7.13,0,0,1,.43,7c-2.25,5.69-3.87,11.63-6.18,17.3-1.41,3.45-1.12,5,2.68,6.61,10.54,4.34,20.81,9.34,31.26,13.9,6.35,2.76,9.2,7.46,9.53,14.29.82,16.7,1.88,33.39,2.86,50.08.29,5,.62,9.89-3.68,13.77-3.83,3.46-8.14,4.57-12.83,2.88-4.85-1.75-7.8-5.22-8-10.77-.62-15.06-1.52-30.1-2-45.16-.08-2.53-1.54-3.13-3.1-3.84-14.91-6.76-30.06-12.92-45.4-18.63a16.79,16.79,0,0,0-3.87-.76c-10.46-1.15-17.42-9-14.53-18.81,7-23.93,12.35-48.48,23.52-71a75.7,75.7,0,0,1,5.1-8.51c4.74-7.06,13.46-10.88,21.58-8.88,8.33,2,14,7.32,15.95,15.91a12.24,12.24,0,0,0,4.36,6.92c5.78,5,11.45,10.08,17.31,14.94,2.22,1.84,2.36,3.08.1,4.9a49.65,49.65,0,0,0-6.15,5.8c-2.93,3.32-4.75,2.2-6.66-1-5.7-9.69-11.54-19.31-17.32-28.95C125.86,82.47,125.25,80.47,122.3,81.7Z"/><path class="cls-1" d="M151.12,118.51l32.39-29.26c10.57-9.54,21.11-19.11,31.73-28.59,2.47-2.22,3.65-4.24,2.89-8-3.82-19.12,10.78-36.28,30.45-36.26,3,0,6-.09,9,0s4,1.29,1.87,4c-4.33,5.43-8.47,11-13,16.32-2.58,3-2.52,5.55.34,8.13,3.19,2.88,6.51,5.63,9.62,8.59,2.92,2.78,5.33,2,7.58-.72,4.12-5,8.15-10,12.29-15,1.23-1.46,2.21-3.65,4.61-3.19,2.13.41,2.45,2.57,2.89,4.24,3.34,12.67,1.76,24.54-7.56,34.19-9,9.3-20.31,11.2-32.52,7.86-2.52-.69-4.19-.73-6.23,1.12-12.86,11.7-25.85,23.25-38.81,34.84-5.42,4.86-10.93,9.63-16.26,14.58-1.77,1.64-3.29,1.73-5.32.66C168.63,127.56,160.13,123.19,151.12,118.51Z"/><path class="cls-2" d="M136.42,62.58c-17.25-.12-29.54-18.07-23.07-33.69.73-1.75,1.06-3.37,4.11-2.88q20.46,3.28,41.06,5.66c3.29.37,3.67,1.74,3.86,4.29C163.44,50.21,151.3,62.69,136.42,62.58Z"/><path class="cls-3" d="M26.17,215.64c-6.63,0-13.25-.1-19.87,0-3.9.08-5.91-1.36-5.76-5.47.12-3.47.17-7,0-10.43-.15-2.69.54-4.14,3.52-3.73s6.67-1.39,9.16,2.48c.69,1.08,3.62.86,5.18-.06,5.68-3.35,10-3.34,15.82,0,1.69.95,4.52,1.37,5.59-.16,2.93-4.2,6.89-1.57,10.31-2.18,1.71-.31,1.55,1.31,1.58,2.42.12,4.14.26,8.27.29,12.4,0,3-1.45,4.57-4.5,4.56H26.17Z"/><path class="cls-4" d="M128.8,1.77c.86,3.89-1.09,7.22-.59,10.67.19,1.28-.9,3.46,1.42,3.52,1.68.05,1.54-1.78,1.66-3.11.31-3.53.68-7,1-10.57C132.44,1,132.94,0,134.39,0s1.86,1.13,1.92,2.41a47.55,47.55,0,0,1-.83,10.78c-.28,1.48-.53,3.45,1.39,3.67s1.07-1.92,1.49-3c1-2.68.75-5.53,1.16-8.29.29-2-.45-5.47,2.8-5.17C145.88.73,144.41,4.15,144,6c-.67,2.8-.49,5.58-.73,8.36-.12,1.35-.34,3.18,1.21,3.35,2.18.23,1.71-2,1.9-3.31a66.34,66.34,0,0,0,.86-8.18c.09-4.63,2.06-4,4.78-1.95,4.62,3.45,8.89,7.54,9.8,13.28.83,5.17,4.05,6,7.94,6.7,1,.18,2-.05,3,.11,1.53.25,3.1.89,3.17,2.62.07,1.93-1.4,2.9-3.18,3.22-3.52.63-6.87-.72-10.28-1.12-15.34-1.81-30.65-3.88-46-5.92-2.57-.35-3.91-1.46-3-4.6C115.56,11.33,120.53,5.55,128.8,1.77Z"/><path class="cls-3" d="M88.88,193.68c-7.8,0-15.61,0-23.42,0-6,0-7.8-1.61-7.85-7.42-.07-8.25,1.31-9.45,7.84-10.17,15.79-1.74,30,3,44,9.5,2.1,1,4.38,1.55,6.39,2.65,1.25.68,3.89.39,3.34,2.71-.45,1.85-2.36,2.72-4.35,2.73-3.82,0-7.64-.09-11.45-.11-4.82,0-9.64,0-14.46,0Z"/><path class="cls-2" d="M26.86,169c10.11,0,10.28.07,12.61,10.17.28,1.25.7,1.7,1.89,1.6a18.87,18.87,0,0,1,2,0c8.37.09,10.62,3.12,8.63,11.41-.29,1.21-.76,1.85-1.92,1.62-3.48-.68-7.46,1.85-10.53-2.08-1.07-1.38-3.65-.93-5.15,0-5.48,3.53-10.68,3.82-16.2,0-1.47-1-4.34-1-5.53.45s-2.6,1.64-4.22,1.69c-8,.27-9.49-1.57-7.81-9.64.69-3.28,3.06-3.58,5.68-3.44,4.16.22,8.07,1,7.64-5.74-.22-3.4,3.32-5.56,7-6A51.67,51.67,0,0,1,26.86,169Zm-.4,11.8a23.65,23.65,0,0,0,3.95-.05c1.58-.26,4.21,1.39,4.18-2.25,0-3.08-1.21-4.63-4.38-4.55-2.8.07-5.6,0-8.4,0s-3.27,2.05-3.42,4.41c-.21,3.14,2,2.32,3.62,2.39C23.49,180.79,25,180.75,26.46,180.75Z"/><path class="cls-3" d="M208.29,288.82c-11.14-.06-20.64-8.18-22.25-18.73-.48-3.12-.21-4.85,3.5-4.25a11.87,11.87,0,0,0,3.47,0c2.67-.39,3.94.43,4.69,3.3,1.45,5.54,5.53,8.42,10.8,8.41s8.8-2.68,10.83-8.35c1-2.82,9.87-4.83,11.61-2.52.46.61.14,1.88.05,2.84C229.93,280.49,220,288.89,208.29,288.82Z"/><path class="cls-2" d="M36.12,266.26c1.86-.18,4.35-.47,5.12,4.09.8,4.79,5.58,7.35,10.55,7.21s9.67-3,10.4-7.61c.61-3.78,2.35-3.72,5.17-3.65,7.67.2,8.42,1.32,5.33,8.65a22.5,22.5,0,0,1-22,13.86A22.74,22.74,0,0,1,30,273.8C27.66,267.32,28.46,266.08,36.12,266.26Z"/><path class="cls-4" d="M158.09,151.48c-3.74,4.7-9.48,7.16-10.58,13.28-.07.35-.67.74-1.09.86-1.24.34-10.62-5.05-11.15-6.34-3.14-7.59-5.56-8.81-13.17-6.18-2.42.83-3,.29-2.59-2.12,1-6.31,5.95-9.44,10.38-13,1.33-1.06,2.17,0,3.09.48C141.21,142.68,149.42,147,158.09,151.48Z"/><path class="cls-5" d="M13.45,262.68l157.93,0c-1.52,1.56-3.46.86-5.2.86q-73.77.06-147.53,0C16.9,263.56,15,264.24,13.45,262.68Z"/><path class="cls-5" d="M180.12,262.63H242c-.94,1.35-2.37.93-3.63.94q-27.31,0-54.61,0C182.5,263.57,181.06,264,180.12,262.63Z"/><path class="cls-5" d="M109.34,196.76l-48-.06c.84-1.09,2.06-.9,3.19-.9q20.87,0,41.73,0C107.33,195.81,108.58,195.53,109.34,196.76Z"/><path class="cls-6" d="M26.46,180.75c-1.49,0-3,0-4.45,0-1.66-.07-3.83.75-3.62-2.39.15-2.36.5-4.35,3.42-4.41s5.6,0,8.4,0c3.17-.08,4.36,1.47,4.38,4.55,0,3.64-2.6,2-4.18,2.25A23.65,23.65,0,0,1,26.46,180.75Z"/></g></g></svg>