<?xml version="1.0" encoding="UTF-8" standalone="no"?><svg xmlns="http://www.w3.org/2000/svg" viewBox="0 0 321.92 292.06"><defs><style>.cls-1{fill:#030304;}.cls-2{fill:#58c3e8;}</style></defs><g id="Слой_2" data-name="Слой 2"><g id="Слой_1-2" data-name="Слой 1"><path class="cls-1" d="M29.5,58.62c3.07-4.08,6.73-5.73,11.15-6.75,3.69-.86,7.24-2.47,11.05-3.16.46-.08.8-.81,1.23-1.29-6.72-.87-13.44-.51-20-.07a21.34,21.34,0,0,0-13.35,6.33c-2,2-4.5,3.77-5,6.58-.42,2.37-1.5,4.49-.7,7.45,1.81,6.69,6.83,8.5,12.22,10.6a15,15,0,0,0,5.85.71q129.29,0,258.58,0c7.13,0,14.68,6.81,16.59,13,.95,3.09.5,6,.52,9,.07,7.94.2,15.88.23,23.82,0,9.22,0,18.44.05,27.65,0,1.77-.39,2.33-2.25,2.32-21.76-.07-43.52-.2-65.28,0-8.13.09-14.28,4.23-18.31,11.35a19.45,19.45,0,0,0-2.54,10.51c.2,6.41,0,12.84.07,19.26.08,7.06,3.65,12.28,9.17,16.26,4.33,3.12,9.33,4.22,14.62,4.13,21.06-.36,42.13-.21,63.2-.12,1.44,0,1.3.66,1.28,1.52-.08,3.75-.32,7.5-.22,11.24.26,9.47-.1,18.93.14,28.4.14,5.88.44,11.85-.13,17.66-.54,5.5-3.08,10.59-8.52,13.58-1.49.81-2.82,1.8-4.44,2.52-3.14,1.38-6.29.72-9.39.72Q184.42,292,83.54,292c-17.46,0-34.92.27-52.36-.12a29.41,29.41,0,0,1-21.27-9.43c-2.76-2.91-5.45-5.73-6.95-9.5A39.92,39.92,0,0,1,0,258q0-96.34,0-192.69c0-6.83,2.43-13,6.47-18.71,4.41-6.24,10.69-9.32,17.41-11.7a27.94,27.94,0,0,1,7-1.06C54.31,32,77.75,33.57,101.17,33c2.67-.06,5.11-1.27,7.68-1.86,2.79-.64,5.52-1.56,8.29-2.27,2.24-.57,4.51-1.33,6.76-1.92A72.84,72.84,0,0,1,132,24.84c2.29-.33,4.48-1.37,6.73-2,2.64-.74,5.35-1.27,8-2.11,2.31-.75,4.64-1.34,7-1.95s4.6-1.71,7-2.11c2.68-.44,5.13-1.57,7.77-2.08,3.79-.73,7.39-2.17,11.19-2.93,3.38-.68,6.65-1.86,10-2.78,3.64-1,7.29-2,10.91-3,3.3-.92,6.65-1.77,9.91-2.87,2.51-.84,5.15-1.28,7.7-2,6.76-1.91,13.66-.44,20.47-1,2.94-.24,4.57,1.21,5.9,3.52s1.54,4.68,2.33,7c.94,2.75,1.23,5.69,2.4,8.39.4.91.36,1.84-1.28,2.09-4.37.68-8.74,1.34-13.09,2.19-2.15.42-4.51.66-6.67,1.09-3.71.75-7.53,1-11.16,2.1a25.56,25.56,0,0,1-5.42.9c-5.65.47-11.1,2-16.67,2.79-3.64.53-7.39,1.38-11,2.09-3.82.74-7.7,1.51-11.61,1.93s-7.72,1.51-11.6,2.18c-1.9.33-3.78.72-5.67,1-4.45.7-8.86,1.69-13.31,2.31-3.89.54-7.73,1.37-11.6,2-2.37.37-4.83.35-7.16,1.28-1.79.72-3.89.65-5.78.87-4,.46-7.86,1.47-11.87,1.87a112.37,112.37,0,0,0-13.8,2.45c-5.37,1.24-10.85,1.75-16.21,3a32.38,32.38,0,0,1-7,1.11,29.18,29.18,0,0,0-6.06,1c-2.72.63-5.6.51-8.17,1.48-2.27.85-4.64.63-7,1.28a26.65,26.65,0,0,1-6.28,1.17A44.37,44.37,0,0,0,34,58.19,25.39,25.39,0,0,1,29.5,58.62Zm85.35,144.64a8.89,8.89,0,0,0,.67,3.17c2.91,8.18,8.44,13.89,15.83,18.15a37.15,37.15,0,0,0,15.05,4.76,43.29,43.29,0,0,0,19.81-2.72,36.4,36.4,0,0,0,13-8.67A32.2,32.2,0,0,0,187,204c.45-1.6.28-3.38-1.24-3.88s-3.55-.66-4.15,2c-1.22,5.34-4.36,9.66-8.12,13.44-5.33,5.36-12.37,7.18-19.52,8.28-5.13.79-10.28-.28-15.1-2-9.3-3.32-15.89-9.46-18.64-19.27-.44-1.58-1.47-2.89-3.56-2.57S114.72,201.67,114.85,203.26Z"/><path class="cls-2" d="M273.92,73.54H31.14c-4.09,0-5.65-1-6-3.53-.38-2.83,1.91-5.3,5.56-5.7,5.1-.56,10-2,15.11-2.75,3.48-.55,7-.86,10.45-1.53,4.64-.91,9.38-1.24,13.94-2.18,3-.61,5.92-1.12,9-1.47a44.75,44.75,0,0,0,5.94-1.53c2.46-.65,5.25,0,7.22-1,4.19-2.12,8.81-.62,13-2.46,3.06-1.34,6.69-1.48,10.09-2,3.83-.54,7.61-1.49,11.56-1.16,1.46.12,2.72-1.11,4.1-1.61,3.71-1.35,7.83.16,11.38-2.15,1.31-.85,3.31-.47,5-.66,5.36-.61,10.91-1.07,15.93-2.5,4.32-1.23,8.82-.31,13-2.34,2.9-1.41,6.51-1.54,9.83-1.88s7-.42,10-1.38a65.45,65.45,0,0,1,11.59-2.41c3-.37,5.9-1.79,8.93-1.37,3.3.44,6-1.39,9-2.06,1.81-.41,3.65-.33,5.46-.78,3.89-1,8-1.24,11.93-1.89A43.62,43.62,0,0,0,248.83,26a15.43,15.43,0,0,1,11.78,1c3.53,1.84,4.93,5.47,5.17,9.37a15,15,0,0,0,1.7,6.12c.72,1.39.24,3,.48,4.53.6,3.71,1.36,7.43,2.16,11.06s.24,7.77,2.21,11.31C273,70.49,271.82,72.14,273.92,73.54Z"/><path class="cls-2" d="M275.8,160.35c11.47,0,22.95.13,34.42,0,7.22-.12,11.78,5,11.7,11.62-.12,9.5,0,19-.05,28.5a10,10,0,0,1-6.2,9.32,12.85,12.85,0,0,1-5.17,1c-23,0-46.07,0-69.1-.06-7.18,0-12.3-3.71-15.21-10.16a11.83,11.83,0,0,1-1.09-5c.13-6.08.15-12.16,0-18.23a16.33,16.33,0,0,1,6.8-14.08,13.79,13.79,0,0,1,8.42-2.92C252.16,160.38,264,160.35,275.8,160.35Zm-25.43,35.23c7.14-.57,11.91-4.05,10.95-13.11-.46-4.33-5.63-8-11.39-7.75-5.45.26-9.65,5.68-9.55,10.56S245.43,195.79,250.37,195.58Z"/><path class="cls-2" d="M307.49,85.25a12.93,12.93,0,0,1-2.61-3.61c-2.36-4-6.05-5.78-10.33-7.18C290,73,285.49,73.8,281,73.59c-2.28-.1-3.17-1-3.29-3.21a44,44,0,0,0-2.3-11.55c-.43-1.29-.31-2.65-.63-4-.81-3.38-.84-7-1.87-10.26s-.85-6.77-2-10c-.45-1.21-.1-1.6,1-1.6,6.59,0,13.3-.79,19.74.2,6.77,1,12.18,4.9,14.71,12a31.81,31.81,0,0,1,1.6,11.11c0,8.72,0,17.45,0,26.17A4,4,0,0,1,307.49,85.25Z"/><ellipse class="cls-2" cx="97.22" cy="0.33" rx="10.05" ry="0.16"/></g></g></svg>