<?xml version="1.0" encoding="UTF-8" standalone="no"?><svg xmlns="http://www.w3.org/2000/svg" viewBox="0 0 314.69 297.76"><defs><style>.cls-1{fill:#5dc4e9;}.cls-2{fill:#09090a;}</style></defs><g id="Слой_2" data-name="Слой 2"><g id="Слой_1-2" data-name="Слой 1"><path class="cls-1" d="M308.93,204.06l-16.34,28.69c-5.78,10.13-11,20.59-17.47,30.29-6.58,9.92-16.1,15.82-28.55,15.8s-24.65.13-37-.11c-3.8-.07-5,1.1-4.71,4.81s.08,7.65.05,11.48c0,1,.25,2.13-.95,2.59a2.42,2.42,0,0,1-3-1.32c-5.91-9.76-14.27-17.61-20.89-26.84-5.22-7.29-11.23-14-17.06-20.88-1.26-1.48-1.85-2.28-.42-4,4.81-5.85,9.38-11.89,14.17-17.75,7.49-9.15,15.94-17.5,22.55-27.39,1-1.43,2.05-3.55,4.13-3.07,2.59.59,1.2,3,1.39,4.67.55,4.57-2,10.62,1.13,13.39s8.93.75,13.56.75c21,0,42-.12,63,0,9.51,0,17.17-3.79,23.82-10.21.57-.55,1.15-1.09,1.74-1.63Z"/><path class="cls-1" d="M123.36,1.37A2.74,2.74,0,0,1,126.14.16c21.63,0,43.28-.49,64.89.23,11.38.38,20.89,5.32,27.21,15.94Q228.83,34.14,239.3,52c1.11,1.91,2.1,1.37,3.57.72a126.19,126.19,0,0,0,16.66-9.38c-2.55,7-4.46,12.66-6.66,18.23-5.18,13.12-10.65,26.14-15.67,39.33-1.41,3.69-2.93,4.63-6.91,3.85-8.53-1.67-17.23-2.47-25.82-3.83-6.78-1.07-13.63-2.43-20.33-3-4.4-.4-8.31-2.45-13.33-1.94,3.35-4.74,8.23-6.14,12.16-8.75,3.36-2.23,3.91-4.27,1.48-7.51-3.67-4.91-5.75-10.73-9-15.93-9.38-15-17.7-30.62-27.68-45.16-4.93-7.18-11.27-14.27-21.06-15.88A16.22,16.22,0,0,1,123.36,1.37Z"/><path class="cls-1" d="M40.29,256.91c-3.58-6-7.13-12-10.77-17.92-8-13.13-16-26.27-24.19-39.32-6.42-10.26-7.15-20.89-1.61-31.52,5.74-11,12-21.79,18.36-32.43,2.07-3.43,1.09-4.93-1.73-6.61-3.79-2.28-7.7-4.4-11.11-7.72,3.2-2.63,6.93-1.34,10.16-1.85,12.24-1.9,24.57-3.23,36.9-4.41,4.45-.43,8.47-2.45,13.1-2.43,3,0,4.18,1,5,3.25,5.72,15,11.4,30.07,17.73,44.87.91,2.14,1.7,4.48,2.45,6.75.39,1.18,2.07,2.8.51,4s-3.77.14-4.53-.94c-2.51-3.52-7-3.59-9.94-6.24-1.83-1.64-3.39-1.86-5.17,1.34-10.12,18.21-21.18,35.9-31,54.27-6,11.3-9.51,23.56-2.84,36.34Z"/><path class="cls-2" d="M314.69,176.67c-1.26,12.94-8.14,25.45-24,28.8-7.69,1.62-15.38.61-23.05,1.24-2.49.2-3.51-1.57-4.51-3.27-12.71-21.66-25.29-43.4-38.17-65-2.14-3.59.64-4.07,2.29-5q19.65-11.76,39.5-23.21c3.16-1.82,6.37-5.58,9.67-4.68s3.9,5.71,5.71,8.79c9.16,15.59,18.26,31.22,27.56,46.72C312.63,166,313.74,171.36,314.69,176.67Z"/><path class="cls-2" d="M99.6,215.16c12,0,24,.1,35.93-.06,3,0,4,.66,3.93,3.82q-.18,27.2.11,54.39c0,3.29-.92,4-4.14,4-21.78-.07-43.55.13-65.33.16-8.56,0-20.6-10.94-23.32-20.86-3-11.07.62-20.64,5.37-30.53,4.56-9.5,11-12.24,21-11.14C81.89,215.92,90.79,215.16,99.6,215.16Z"/><path class="cls-2" d="M145.76,35.52c.44,2.87-1.58,4-2.52,5.67-11.66,20.79-23.41,41.52-35,62.37-1.5,2.71-2.32,3-5.08,1.39Q80.37,91.3,57.2,78.24c-2.68-1.5-2.74-2.24-1.37-4.67C65.69,56.1,75.9,38.79,85,20.92,96.11-.89,126,1.27,136.93,18.77A115.66,115.66,0,0,1,145.76,35.52Z"/></g></g></svg>