<?xml version="1.0" encoding="UTF-8" standalone="no"?><svg xmlns="http://www.w3.org/2000/svg" viewBox="0 0 429.03 363.29"><defs><style>.cls-1{fill:#212122;}.cls-2{fill:#58c3e8;}.cls-3{fill:#fff;}</style></defs><g id="Слой_2" data-name="Слой 2"><g id="Слой_1-2" data-name="Слой 1"><path class="cls-1" d="M213.79,0c4.09,8.46,5.4,16.88,6.81,25.2,1.7,10,3.57,20.06,3.52,30.31,0,1.15,11.87,13.6,12.91,13.62,8.13.15,15.94,2.14,23.78,4,18.71,4.48,36,13,54.36,18.61,13.79,4.25,27.41,5.86,41.43.93,4.07-1.44,8.65-1.29,11.81,2.74,2.08,2.65,2.84,5.6,1.27,8.83-.22.45-.29,1.15-.63,1.33-6.2,3.18-3,7.28-1.14,11.23q12.7,27,25.4,54,13.28,28.35,26.43,56.75c1.83,3.92,3.1,8.23,5.6,11.65,6.72,9.15,3.17,17.25-2,25.15-10.94,16.8-27.44,25.06-46.46,28.24-20.51,3.42-40.12.09-57.88-11.35-10.91-7-18.9-16.48-22.84-29.11a8.32,8.32,0,0,1,.36-6.6q25.71-54.93,51.19-110c3.49-7.52,7.12-15,10.67-22.45,1-2.07.21-3.12-1.08-5.21-3.52-5.71-7.95-4.4-12.86-3.83-19,2.2-37.39-1.6-55.61-6.53-14.23-3.84-28.53-7.37-43-10-3.37-.63-6.86-.12-10.21-1.15-1.74-.54-2.63.76-3.48,2.06-9.85,15.17-29.8,12.06-36.71-.31a3.09,3.09,0,0,0-3.55-1.78c-15.77,1.71-31.13,5.43-46.42,9.51-18.15,4.84-36.3,9.8-55.39,8.75-2.29-.13-4.7.12-6.86-.49-4.61-1.3-7.73-.35-11.34,3.3-2.66,2.68-2,4.09-.87,6.41,20,42.63,39.74,85.38,60.13,127.81,4.11,8.54,1.27,15-2.73,21.61-9,14.85-22.91,23.41-39.18,27.66-22.8,5.95-44.84,3.37-65.16-9.22-11.48-7.12-19.74-17-23.75-30.16a6.53,6.53,0,0,1,.48-5.09Q23.64,197.8,46.31,149.1q8.43-18,17.09-35.94c1.16-2.38,1.1-4-1.14-5.42-4-2.54-4.09-6.57-2.74-10.16s4.71-5.29,8.74-5.3c4.88,0,9.19,2.4,13.93,3.08,12.58,1.79,24.47-1,36.25-5,16.46-5.44,32.16-13,49.08-17.16,7.82-1.91,15.63-3.91,23.73-4.09a3,3,0,0,0,3.25-2.28c.38-1.07.86-2.43,1.72-3,10-6.15,7.49-16.59,8.84-25.65,1.68-11.2,3.2-22.42,6.65-33.26C212.19,3.51,212.91,2.1,213.79,0Zm86.58,249.66c6.92,0,13.06-.13,19.2.06,2.4.07,2.93-.74,3.23-3,1.16-8.92,2.84-17.78,3.86-26.72.37-3.23.71-5.28,4.59-5.23,2.09,0,3.84-1.79,4.54-3.51,1-2.36,3.2-5.65-2-6.57a4.26,4.26,0,0,1-3.81-4.55c.18-3.43,3-4.47,5.54-4.65a132.61,132.61,0,0,1,16.44,0c2.48.14,5.16,1.47,5.26,4.39a4.64,4.64,0,0,1-5,5c-3,0-2.75,1.24-2.12,3.37,1,3.22,2.53,6,6,6.42s3.93,2.13,4.29,5.19c1.09,9.25,2.76,18.43,4,27.67.24,1.74.77,2.3,2.42,2.2s2.42-.61,2.28-2.42a10.22,10.22,0,0,1,.52-3.4c1.53-5.31-.5-12.06,7.75-14.45,4.05-1.17,3.26-5.37-.88-7.2-1.55-.68-3-1.72-2.65-3.73.31-1.69,1.23-3.29,3.13-3.33,5.81-.13,11.64-.1,17.45-.05a3.61,3.61,0,0,1,.84,7c-1.87.5-4.14.13-3.57,3.26.49,2.66,1.74,5.19,4.43,5.3,4.4.18,4.5,3.18,4.94,6.1.48,3.23.78,6.47,1.14,9.71.22,2,.74,3.29,3.3,3.19,5.31-.19,10.64-.12,16,.07,3,.11,2.35-1.25,1.55-3-2.51-5.42-4.94-10.87-7.47-16.27q-20.35-43.44-40.74-86.85c-4.07-8.66-8.14-17.32-12.54-26.66ZM67.06,117.4c-5.57,11.79-10.82,22.83-16,33.9Q37.76,179.64,24.53,208q-9.18,19.56-18.41,39.11C5.39,248.66,4.81,250,7.45,250c7.31-.11,14.61-.26,21.91-.28,1.76,0,2.59-.27,2.84-2.35,1-8.56,2.54-17.07,3.38-25.64.28-2.87,1.25-4.28,3.81-4.84,3.46-.75,5-2.83,6.12-6.28.92-2.92-.27-3.68-2.28-4-3-.43-4.64-2.3-4.33-4.94s2.7-3.89,5.54-3.86c5.32.07,10.64,0,16,0,2.55,0,4.6.82,4.76,3.87s-1,5-4.24,4.71c-2.61-.24-2.87,1.26-2.52,3,.73,3.59,2.34,6.91,6.43,7.19,2.68.18,3.15,1,3.43,3.5,1,8.93,2.39,17.82,3.77,26.7.19,1.19.11,3.21,2.5,2.83,1.66-.26,1.93-1.08,2.06-2.7.36-4.56,1-9.11,1.78-13.62.51-2.89.59-6.15,5.12-6.34,2-.08,3.57-2.06,4-4.56.45-2.89-1.67-3-3.36-3.8-1.47-.72-3.13-1.87-2.57-3.76a4.69,4.69,0,0,1,4.37-3.55c5-.15,10-.14,15,0,2.4.05,4.26,1.38,4.46,3.84s-1.62,3.57-3.65,4.11c-1.26.33-3,0-2.35,2.1.72,2.35,1.39,5.43,4.14,5.67,4.85.41,5,3.72,5.42,7.1.36,2.75.7,5.5,1.09,8.25,1,7.26,1.05,7.24,8.05,7.27q4,0,7.95.24c2.14.12,2.75-.54,1.78-2.61-3.92-8.39-7.75-16.83-11.65-25.23Q102,191.88,87.94,161.72C81.14,147.2,74.27,132.71,67.06,117.4ZM205.91,76.65c0,4.53,3.87,8.6,8,8.46,3.92-.14,8.37-4.79,8.24-8.61s-4.18-7.88-8.16-8A8,8,0,0,0,205.91,76.65ZM364.71,101a2.69,2.69,0,0,0-2.51-2.85,2.78,2.78,0,0,0-3.17,2.43,2.72,2.72,0,0,0,2.72,3.3C363.45,104,364.46,103,364.71,101ZM70,101a2.78,2.78,0,0,0-5.54.43,2.46,2.46,0,0,0,2.9,2.6A2.61,2.61,0,0,0,70,101Z"/><path class="cls-2" d="M213.37,363.15c-27.43,0-54.86,0-82.29.06-3.62,0-5.34-.51-5.22-4.8.26-9.2,1.87-11.13,11-12.24,3.11-.38,6.17-1.1,9.33-.91,1.74.11,2.43-.52,2.94-2.4,1.91-7.23,2.62-7.62,9.9-7.63,1.49,0,3-.12,4.48,0,2.68.26,3.31-1,3.42-3.48.42-10,4.23-13.57,14.17-13.58,21.62,0,43.23.2,64.84-.1,8-.1,14.14,2.46,15.25,12.34.5,4.53,2.68,5.17,6.43,4.86,2.25-.18,4.61-.48,6.81.78s4.38,2.7,4.11,5.15c-.51,4.81,2.07,5.11,5.64,4.95a78.73,78.73,0,0,1,9.47.05c6.44.48,11.4,10.83,7.71,16-1.15,1.61-3.09.87-4.67.87Q255,363.18,213.37,363.15Z"/><path class="cls-2" d="M224.79,202.8c0,24.47-.07,48.94.08,73.42,0,3.78-.79,5.51-4.92,5.07a49.42,49.42,0,0,0-10.46,0c-4.92.55-6.61-1-6.52-6.21.31-18,.06-36,.06-53.94q0-46.18.1-92.39c0-2.73.31-5.12-3.47-5.93-2.16-.47-3.18-3-2.58-5.33a5,5,0,0,1,4.59-4q12-.25,23.93,0c2.56.06,4.17,2,4.86,4.38a4.17,4.17,0,0,1-2.89,5.14c-3.09.82-2.77,2.71-2.77,4.88q0,37.46,0,74.91Z"/><path class="cls-1" d="M207.7,300.54c-.15-4.1,3-7.36,6.46-7.36,3.18,0,6.54,3.26,6.2,6.54-.37,3.58-2.27,6.41-6.25,6.42S208.23,303.67,207.7,300.54Z"/><path class="cls-3" d="M364.71,101c-.25,1.93-1.26,2.94-3,2.88a2.72,2.72,0,0,1-2.72-3.3,2.78,2.78,0,0,1,3.17-2.43A2.69,2.69,0,0,1,364.71,101Z"/><path class="cls-3" d="M70,101a2.61,2.61,0,0,1-2.64,3,2.46,2.46,0,0,1-2.9-2.6A2.78,2.78,0,0,1,70,101Z"/></g></g></svg>