<?xml version="1.0" encoding="UTF-8" standalone="no"?><svg xmlns="http://www.w3.org/2000/svg" viewBox="0 0 329.02 454.22"><defs><style>.cls-1{fill:#050608;}.cls-2{fill:#58c3e8;}</style></defs><g id="Слой_2" data-name="Слой 2"><g id="Слой_1-2" data-name="Слой 1"><path class="cls-1" d="M66.15,42.19C74.56,41.34,81.7,38.64,85.41,30c2.28-5.31,5.34-10.33,9.93-13.94A19.65,19.65,0,0,1,107,11.45c7.48-.32,14.09,2.22,21,4,4.49,1.12,8.82-.6,12.72-3.15,4.95-3.24,8.91-7.71,14.4-10.36C163-1.85,173.37.31,179.45,5.24,184,8.91,188,13.34,194.11,15c4.13,1.14,7.72.07,11.29-1A58.13,58.13,0,0,1,221,11.38c10.89-.13,16.21,7.13,21,15.18,2.15,3.66,3.61,7.68,6.94,10.62,2.57,2.27,5.54,3.08,8.74,3.86,5.68,1.39,11.76.86,17.17,3.34A21.58,21.58,0,0,1,287.1,58.57c1.61,5.5,1.7,11.17,2.85,16.71,1.08,5.21,4.43,8.16,8.46,10.85,4.87,3.25,10.69,5.13,14.51,9.89,4.28,5.35,6.6,10.9,5,18.3-1.27,5.85-3.83,11.49-3.5,17.81a18.06,18.06,0,0,0,3.54,9.71c2.3,3.23,5,6.2,7.4,9.43a19.79,19.79,0,0,1,3.49,9.75c1.23,9.37-3.65,16-9.21,22.43-4.54,5.26-6.2,11-4.27,18,1.49,5.42,4,10.72,3.42,16.64A22.24,22.24,0,0,1,307.93,236c-4.24,2.69-8.92,4.65-12.88,7.7s-5.43,7.69-5.86,12.52c-.58,6.58-.64,13.32-4.22,19.13-4,6.51-9.91,10-17.72,10.65-6.55.56-13.33,1-18.88,5.33-3,2.34-4.58,5.66-6.18,8.92-2.72,5.53-5.73,10.82-11,14.33a16,16,0,0,1-8.5,2.92,48.45,48.45,0,0,1-17.62-3c-8-2.74-15.16.09-21.26,5.74-5.23,4.84-11.16,8.71-18.35,9.36-5.49.5-10.32-2.19-14.87-5.18-4.05-2.66-7.14-6.51-11.45-8.85-6.62-3.6-13.21-1.68-19.54.37C107.49,319.84,96.92,317,90,305.29c-2.55-4.28-4.1-9.17-7.9-12.75s-7.89-5-12.91-5.66c-7.63-1-15.75-1.3-21.59-7.41-3.95-4.15-5.86-9.13-6.72-15-.69-4.68,0-9.56-2-14.18A22,22,0,0,0,27.12,239c-8.28-3.72-14.33-9.22-16.41-18.19-1-4.15,0-8.37,1.35-12.49,2-6.17,4.13-12.39,1.45-19-1.59-3.92-4.56-6.86-7.21-9.89A24.53,24.53,0,0,1,.36,158.5c.64-4.13,3.3-7.68,6.11-10.91,2.62-3,5.61-5.87,7.13-9.54,2.21-5.35,1.22-10.88-.45-16.26-1.33-4.26-3-8.52-2.6-13A20.69,20.69,0,0,1,20.73,92.28c4.39-2.77,9.15-5,13.33-8s5.42-7.62,6-12.44c.65-5.3.76-10.71,2.93-15.7,3.26-7.46,9.08-11.67,17-13.05C62,42.7,63.89,41.42,66.15,42.19Zm216.53,123c-.88-36.53-14.13-66.56-40.69-89.76s-58.23-32.84-93.43-28C118.91,51.49,93.88,65.21,74.6,88c-22.27,26.35-31.75,57.28-27,91.55,4.14,30.17,18,55.72,41.85,75.13,27.72,22.59,59.75,31.26,94.9,25.64,28.94-4.63,53.07-18.83,71.66-41.77C273.58,216.86,282,191.75,282.68,165.19Z"/><path class="cls-2" d="M201.4,323.86l10.44,2.59c7.64,1.92,14.65.88,21.86-2.05,9.25-3.76,13.09-12,17.51-19.75,3.26-5.73,7.42-8.91,14.37-7.91a10.37,10.37,0,0,0,6.38-1.31c3-1.83,3.21.59,3.76,2.09,2.22,6.06,4.31,12.17,6.35,18.3,4.88,14.64,9.69,29.3,14.57,43.95,3.16,9.47,6.46,18.9,9.6,28.37,3.37,10.17,7.24,20.16,10.3,30.44.74,2.47-.55,4.24-2.11,5.5a4,4,0,0,1-4.72.81c-15.06-6-29.77-12.89-44.88-18.79-2.8-1.1-4.88-1-6.45,1.81-2.94,5.2-5.73,10.51-8.92,15.57-5.29,8.37-9.4,17.39-14.55,25.81-1,1.71-2.41,3.78-4.86,4.14-2.28.33-6.21-2.7-6.63-5.46a54.79,54.79,0,0,0-4.11-13.57c-2.89-6.67-5.06-13.55-7.31-20.4-4.39-13.37-9.23-26.59-13.75-39.9-3.3-9.72-6.9-19.36-9.73-29.25-.91-3.17-2.33-6.21-3.41-9.34-.6-1.76-.94-3.6,1.37-4.55s3.8-2.93,5.69-4.34C195.14,324.41,198.36,324.87,201.4,323.86Z"/><path class="cls-2" d="M65.34,297.14c7.89-.17,11.66,5,14.74,11.21,4.66,9.36,11.48,16.52,22,18.59,6.86,1.35,14.18,1.49,20.76-1.09,7.58-3,13.17-.29,18.7,4.27,2.3,1.9,4.53,4.33,7.22,5.21,3.36,1.1,3,3,2.32,5.21-3.86,11.89-7.74,23.78-11.81,35.6-3.35,9.72-6.35,19.55-10.05,29.16-3.38,8.78-5.36,18.09-8.42,27-2.14,6.25-4.47,12.44-6.4,18.77-.76,2.52-2.92,2.75-5,3.08a4.45,4.45,0,0,1-4.81-2.17c-3.89-6.64-7.65-13.36-11.53-20q-7-11.91-14.08-23.74c-.71-1.16-1.33-2.37-3.52-1.34-7,3.28-14.41,5.74-21.29,9.23-8.44,4.28-17.69,6.61-25.88,11.38a3.36,3.36,0,0,1-4.45-.43c-1.58-1.5-3.4-2.91-2.65-5.5,2.05-7.07,3.76-14.27,6.28-21.17,4.2-11.48,6.83-23.47,11.36-34.8,2.92-7.29,4.18-15.06,7-22.28,3.9-10,6.79-20.23,10.21-30.33,1.43-4.22,2.42-8.61,4.23-12.73C61.71,297.09,61.75,297.11,65.34,297.14Z"/><path class="cls-2" d="M112.83,152.79c3,0,5.33.71,7.24,3a125.76,125.76,0,0,0,17.28,16.94,69.75,69.75,0,0,1,7.4,7c1.6,1.75,2.45,1.52,4-.06,20.76-20.86,41.65-41.6,62.37-62.49,5.31-5.36,8.37-5.93,14.14.1,3.33,3.47,6.8,6.8,10.14,10.25,5.42,5.6,4.52,7-.07,11.77-10.64,11.08-21.65,21.79-32.51,32.66-16.5,16.5-33.08,32.93-49.45,49.56-3.91,4-9.34,4.19-13.36-.05-9.5-10-19.55-19.51-29-29.55-4.82-5.11-10.08-9.8-15.1-14.71-3.5-3.43-3.44-6.64.09-10.18,4.06-4.07,8.19-8.07,12.15-12.23A5.43,5.43,0,0,1,112.83,152.79Z"/></g></g></svg>