<?xml version="1.0" encoding="UTF-8" standalone="no"?><svg xmlns="http://www.w3.org/2000/svg" viewBox="0 0 519.4 307.83"><defs><style>.cls-1{fill:#58c3e8;}.cls-2{fill:#050507;}</style></defs><g id="Слой_2" data-name="Слой 2"><g id="Слой_1-2" data-name="Слой 1"><path class="cls-1" d="M39.82,129.26c3.33.91,6.18,2.84,9,4.68,2.48,1.62,5.38,2.5,7.66,4.47,1.26,1.08,2.6.11,3.55-.53a42.17,42.17,0,0,1,15.52-6.46c4-.76,5.22-3.31,5.65-6.22.69-4.6,2.28-8.89,3.42-13.32a2.2,2.2,0,0,1,2.48-2c8.17.38,16.32-.85,24.5-.13,2.07.18,3.32.78,3.8,3,1.07,5.08,3.28,9.88,3.79,15.11a2.76,2.76,0,0,0,2,2.59c3.76.83,7.19,2.6,10.88,3.54a14,14,0,0,1,5.26,2.62c3.13,2.56,5.63,2,8.6.05,3.65-2.4,7.55-4.43,11.19-6.84a3.81,3.81,0,0,1,5.4.54c5.8,5.9,11.52,11.87,17.27,17.81a1.79,1.79,0,0,1,.32,2.58c-3.39,4.48-6.05,9.42-9.06,14.14a3.16,3.16,0,0,0-.11,3.75c3.12,6,6.47,11.84,7.71,18.59a2.47,2.47,0,0,0,1.91,2.28c2.17.51,4.27,1.61,6.45,1.79,3.77.33,7,2.4,10.75,2.76,1.25.12,1.49,1,1.49,2.08q0,12.95,0,25.88c0,.93-.15,1.56-1.31,1.81-5,1.08-9.79,3.43-15,3.75-4,.24-4.37,3.43-5.2,6-1.58,4.82-3.23,9.62-6.06,13.8-2.11,3.13-1,5.45.72,8q3.88,5.85,7.71,11.71a2.28,2.28,0,0,1-.45,3.17q-9.07,9-18.11,18.05c-1,1-1.88,1-3.12.22-4.89-3-9.95-5.75-14.75-8.9-1.41-.93-2.33-.89-3.41-.06-3.71,2.85-8.64,3.2-12.34,6.06-.26.2-.81,0-1.22,0-5.08.38-7.15,2.19-8.35,7.1-1,4.21-2.21,8.38-3.25,12.59-.46,1.89-1.32,2.54-3.41,2.3a59.17,59.17,0,0,0-11.9.05c-4.36.37-8.73-.43-13.17-.06-2.52.21-2.52-3.22-3.09-5.21-1.26-4.4-2.26-8.88-3.32-13.34a2.34,2.34,0,0,0-2.13-2,50.39,50.39,0,0,1-16.91-6.67c-3-2-5-1.27-7.45.25Q48,284.34,42.13,287.9c-1.64,1-3.12.52-4.38-.74-5.89-5.85-11.75-11.73-17.66-17.57-1-1-.77-1.82-.15-2.85,2-3.28,3.48-7,6-9.79,3.9-4.41,3.5-8.19.59-12.95a50.83,50.83,0,0,1-5.58-13.29c-.79-3-3.08-2.78-4.67-3.27-4.54-1.4-9.33-1.91-13.85-3.54C.55,223.23,0,222.19,0,220.31q.12-11.81,0-23.61c0-2.1.64-3,2.84-3.39,5.52-1.08,11-2.52,16.43-3.9,1.89-.48,2.11-2.59,2.41-3.84,1.49-6.18,4.57-11.63,7.22-17.28a2.77,2.77,0,0,0-.29-3.34c-3.05-4.62-5.81-9.42-8.76-14.1-.8-1.27-.56-2,.47-3,5.54-5.43,11.27-10.67,16.28-16.61C37.41,130.26,38.2,129.08,39.82,129.26ZM100,162.31c-26.39.77-47.19,20.69-46.86,46.43.34,26.3,20.62,46.61,46.43,46.4,26.39-.21,47.76-19.26,46.72-49.53C145.53,183.42,127.7,163.24,100,162.31Z"/><path class="cls-1" d="M396.12,183.45c-2.18-1-5.12-2.29-7.89-3.84-1.4-.78-3.14-1.22-4.2-2.19-2.53-2.33-5.06-1-6.92.13-5.68,3.52-12.1,4.92-18.28,7a4.43,4.43,0,0,0-3.29,3.42c-.89,4.12-3.26,7.65-4.25,11.71-.37,1.53-1.38,2.18-3.08,2.15-8.1-.11-16.19-.09-24.28-.13-2.67,0-4.45-.83-5.27-3.83-1.18-4.34-3.08-8.48-4.48-12.77a2.86,2.86,0,0,0-2.23-2,69.71,69.71,0,0,1-19.84-8.52c-1.86-1.12-3.06-.71-4.62,0-4,1.94-8.09,3.78-12.09,5.77a2.46,2.46,0,0,1-3.35-.58c-5.66-5.77-11.41-11.47-17.15-17.17-1.92-1.91-2.93-3.78-1.12-6.44,2.43-3.58,3.6-7.88,6.17-11.41.77-1.06.68-2.08,0-3.38-3.16-5.94-6.52-11.79-7.71-18.59a4.34,4.34,0,0,0-3.32-3.44c-4.17-1.17-8.2-2.84-12.29-4.27a3.08,3.08,0,0,1-2.39-3.32c.09-8.41.19-16.82,0-25.23-.09-3.81,3.09-3.45,5-4.26a68,68,0,0,1,10.93-3.33c2.13-.5,2.36-2.53,2.64-3.66,1.59-6.49,4.89-12.16,8-17.94.76-1.43.44-2.51-.23-3.85-2-4.08-3.57-8.4-6.11-12.22-.74-1.12-.36-2,.53-2.81,6.66-6.28,12.71-13.2,19.87-19,1.13-.91,1.75-.76,3-.27A98.34,98.34,0,0,1,290,25.36a4.38,4.38,0,0,0,4.35.15,67.48,67.48,0,0,1,20.29-8.21c2.55-.62,3-3.31,3.95-5.41,1.49-3.32,2.4-6.84,4-10.15A2.35,2.35,0,0,1,325.09,0c8.52,0,17.05.07,25.57,0,2.44,0,3.37,1.63,3.73,3.3,1,4.6,3.77,8.46,4.9,13a3.19,3.19,0,0,0,2.34,2.35,93.09,93.09,0,0,1,20.56,8.74c2.76,1.53,5.33-1.17,7.9-2.21,2.89-1.16,5.68-2.56,8.56-3.74,1.09-.44,2,.09,2.87.94q8.89,9,17.87,17.83c1.36,1.35,1.84,2.81.7,4.54-2.59,3.9-3.61,8.61-6.37,12.42a2.07,2.07,0,0,0-.06,2.62c3.87,6.58,7.13,13.43,8.51,21a2.49,2.49,0,0,0,1.86,2c4.29,1.44,8.5,3.11,12.79,4.51,1.76.57,2.26,1.47,2.25,3.25-.05,8.38-.08,16.78.12,25.16.06,2.47-1,3.27-3.1,3.94a131.67,131.67,0,0,0-12.74,4.32,3.57,3.57,0,0,0-2.17,2.12,68.74,68.74,0,0,1-7.88,18.41c-1.92,3.17.11,5.45,1.41,7.47,2.05,3.21,2.3,7.12,4.62,10.15.7.93-.31,1.8-1,2.46-4,3.78-7.49,8.08-12,11.26-2.52,1.76-4.1,4.41-6.38,6.39C399,183,398.25,183.92,396.12,183.45Zm-133.4-80.39c-.31,3.16.33,9.29,2.12,15.29,1.93,6.44,4.08,12.89,7.6,18.58a78.75,78.75,0,0,0,20.92,22.47c8.15,5.92,17.12,10.62,26.94,12.48,12.44,2.34,25.09,2.59,37.46-1.27a87.35,87.35,0,0,0,15.91-6.67c9.37-5.11,16.93-12.27,23.55-20.54,5.19-6.51,8.15-14.06,10.8-21.84,1.56-4.58,1.94-9.28,2.71-14,1.1-6.67.39-13.16-.69-19.58a75.76,75.76,0,0,0-6.59-19.53,67.44,67.44,0,0,0-11.6-16.81c-5.79-6.3-12.83-11-20.34-15.2-8.51-4.79-17.71-7.13-27-8.13a75.15,75.15,0,0,0-18.79.45,70.87,70.87,0,0,0-15.72,4c-16.18,6.36-29.05,16.6-37.85,31.83C265.77,75.62,262.82,87.37,262.72,103.06Z"/><path class="cls-2" d="M390.74,246.62c0-10.57.06-21.14,0-31.7,0-3,.9-4.36,4.1-4.13a78.64,78.64,0,0,0,9.71,0c2.68-.13,3.6,1.15,3.75,3.58.14,2.2-1.08,5.19.6,6.37,1.53,1.08,4.35.35,6.6.36,11.87,0,23.74,0,35.61,0a40.66,40.66,0,0,0,11.56-1.79c5.89-1.69,8.56-6.16,9.85-11.7a31.51,31.51,0,0,0,.93-8.23c-.05-1.71-.5-2.14-2.2-2.15-5.38,0-5.62-.37-5.62-5.66,0-2.37,0-4.75,0-7.12,0-3.35,1.5-4.81,4.84-4s4-.47,3.89-3.33c-.07-2.36,1.06-4.58.92-7-.09-1.5-.52-2-2.09-2-4.56-.11-5.18-1.2-4.89-7.78.14-3.12,1.74-4.27,5.39-4.26,14,.07,28.06.18,42.08,0,3.15-.05,3.91.92,3.6,3.73a46.11,46.11,0,0,0,0,4.85c0,1.79.73,4.11-2.64,3.58-1-.17-.91.9-.93,1.65-.07,2.37-.15,4.73-.25,7.1-.08,2,0,4,2.78,4,1.2,0,1,.81,1,1.54v13.26c0,.81,0,1.65-1.15,1.45-2.95-.56-2.43,1.45-2.41,3.14s-.07,3.45,0,5.17c.05,1.08-.15,2.16-1.12,2.45-2.65.8-2.45,2.77-2.44,4.85,0,8.3.22,16.61,0,24.9A60.81,60.81,0,0,1,505,263.93c-2.4,4.66-5.3,8.78-9.84,11.51a12.77,12.77,0,0,1-5.58,1.49c-6,.51-11.93-.89-17.93-.86-20.07.11-40.15.07-60.22,0-2.28,0-3.59.2-3.26,3,.28,2.46-1.36,3.72-3.74,3.78-3.23.09-6.47.06-9.71,0-2.75,0-4-1.46-4-4.24C390.76,268,390.74,257.29,390.74,246.62Z"/><path class="cls-2" d="M246.54,32.86c0,7.11-.06,14.23,0,21.34,0,2.52-.63,3.79-3.5,3.52a37.36,37.36,0,0,0-8.39.07c-2,.26-2.42-.35-2.16-1.95.53-3.32-1.63-2.93-3.77-3.07-3-.2-2,1.84-2,3.21-.09,2.8-.07,5.61,0,8.41,0,2-.78,2.92-2.89,2.85-3.66-.11-7.34-.16-11,0-2.42.09-3.13-1.33-3.52-3.24a6.17,6.17,0,0,1,0-1.29c-.06-6.52-.06-6.51-6.78-6.52-4.42,0-8.9-.54-13.25,0-4.63.6-9.54.28-13.8,3.07-3.22,2.1-4.63,4.92-5.54,8.6-1.57,6.36-.39,12.72-.83,19.07-.07,1.08-.42,2.21,1.49,2.51,1.41.22,1.48,2.08,1.87,3.32a6.89,6.89,0,0,1,0,1.93c0,8.58-.68,8.86-9.26,8.39-8.39-.45-16.83-.11-25.24-.08s-16.6.06-24.9.2c-1.84,0-2.63-.76-2.67-2.38-.07-3-.06-6,0-9a2.3,2.3,0,0,1,2.67-2.5,63.2,63.2,0,0,1,6.46.06c2.61.33,2.94-.79,2.9-3-.13-7.87-.17-15.74,0-23.61.22-11.39,4.31-21.33,11.25-30.37A52.61,52.61,0,0,1,155.47,15.7a44.36,44.36,0,0,1,11.91-3.49c13.07-1.56,26.16-.33,39.24-.63,2.45-.06,2.75-.94,2.79-3,.13-8.33.18-8.42,8.48-8.15,2.13.07,4.15-.78,6.35-.2,1.79.47,2.55,1.19,2.49,3-.09,2.47,0,5,0,7.44,0,2,1.2,2.61,2.9,2.58s3.2-.48,2.87-2.56c-.56-3.5,1.29-3.91,4.09-3.66a34.14,34.14,0,0,0,6.15,0c3.19-.31,3.85,1.5,3.84,4.09Q246.53,22,246.54,32.86Z"/><path class="cls-2" d="M323.08,239.68c-.2,34.74-23.17,54.67-45.55,57.84-19.59,2.76-35.91-3.38-49.23-17.68-7.38-7.92-11.48-17.57-12.92-28.24-2.17-16,2.1-30.24,12.56-42.43a53,53,0,0,1,32.22-18c15.53-2.62,29.66,1.11,42,10.67C316,212.47,322.67,226.91,323.08,239.68Zm-24.39,4.75c1.36-15.07-12.73-31.17-32.92-30.1-12.75.68-27.48,15.55-27,29.65.57,16,12.12,30.54,31.55,30C284,273.69,298.76,263,298.69,244.43Z"/><path class="cls-2" d="M405.72,98.75c.11,16.17-4.08,29.44-12.68,41.12a68,68,0,0,1-37.44,25.65A66.15,66.15,0,0,1,337.37,168a68.59,68.59,0,0,1-26.39-5.2,70.42,70.42,0,0,1-24.76-16.95,67.75,67.75,0,0,1-14.91-25.37c-2.23-6.88-3.72-14.07-3.34-21.23.67-12.65,3.73-24.68,11.25-35.38A71.12,71.12,0,0,1,292.65,49a69.26,69.26,0,0,1,22-12,72,72,0,0,1,22.33-3.67,67.84,67.84,0,0,1,32.84,8.08,64.46,64.46,0,0,1,15.85,11.6c8.17,8.41,14.38,18.07,17.43,29.69C404.59,88.59,406,94.31,405.72,98.75Zm-68.63,47.93c25,1.09,48.91-21,46.79-50a43.62,43.62,0,0,0-10.71-25.93c-11.61-13.34-26.25-19.11-43.9-16.28A45.6,45.6,0,0,0,301,70.09c-9.25,10.86-13,23.6-10.56,37.75C293.44,125.57,310,147.22,337.09,146.68Zm52.84-77.27c-.14-4.54-3.29-7.14-6.11-9.74-3.39-3.11-5.29-2.2-7.72-.34-3,2.32-3.32,4.29-1.69,8.11,1,2.41,2.89,4.24,4.54,6,1.87,2,4.77,2.35,7.57,1A5.46,5.46,0,0,0,389.93,69.41ZM372.14,138.6c-.33,4.55,5.26,7.56,8.92,5.28a17.55,17.55,0,0,0,7.35-8.62c1-2.52-.25-4.06-1.46-5.62a5.8,5.8,0,0,0-5.79-2.49C377.75,127.84,372.18,135.09,372.14,138.6Zm14.53-41.85h0c0,1.29-.07,2.59,0,3.88.21,3.09,3.64,6.21,6.54,6a7.1,7.1,0,0,0,6.21-6.51,47.86,47.86,0,0,0,0-5.49c-.54-4.9-3.36-7.18-7-6.86-4.12.37-5.71,2-5.71,6.7ZM337.86,50.84h3.24a6.42,6.42,0,0,0,4.74-10.33c-2.57-3-8.68-3.84-13.88-1.6a6.15,6.15,0,0,0-3.07,6.87C330.24,49.69,332.29,50.84,337.86,50.84Zm1.62,112.88c1.92.88,4-.31,5.85-.95a5.89,5.89,0,0,0,4.18-6.16,5.76,5.76,0,0,0-4.46-5.46c-3.55-1.05-7,0-10.48.32-2.23.23-3.68,2.25-3.78,4.79C330.6,161.49,333.15,163.77,339.48,163.72ZM294.76,145c4,.75,8-4.92,6.31-7.62a32.39,32.39,0,0,0-6.85-8.29,5.39,5.39,0,0,0-6.83-.14c-2,1.51-3.62,3.88-2.85,6.62.91,3.21,3.3,5.62,5.69,7.82A5.26,5.26,0,0,0,294.76,145Zm-4.37-72c.72-.12,1.76.37,2.54-.51,2.12-2.41,4.86-4.23,6.42-7.15,1.21-2.28.61-6.32-1.26-7.81a6,6,0,0,0-7.87,0,25.17,25.17,0,0,0-4.61,4.49c-1.61,2.3-3,5-1.27,7.84A6.06,6.06,0,0,0,290.39,73.05ZM273,99.53c.15,2-.08,4.16.54,6,.72,2.12,5,4.08,6.81,3.61a7,7,0,0,0,4.75-6.74c0-2.25,0-4.5-.13-6.74-.17-3.88-4.95-6.32-8.4-4.56C272.86,93,272.86,96.15,273,99.53Z"/><path class="cls-1" d="M284.31,244.23c.29,10.5-8,15.55-15.41,15.53-8.34,0-15.6-5.6-15.66-15.44-.06-8,6.41-14.93,15.13-15.44S285.42,236.62,284.31,244.23Z"/></g></g></svg>