<?xml version="1.0" encoding="UTF-8" standalone="no"?><svg xmlns="http://www.w3.org/2000/svg" viewBox="0 0 393.87 376.41"><defs><style>.cls-1{fill:#58c3e8;}.cls-2{fill:#1f1f1f;}</style></defs><g id="Слой_2" data-name="Слой 2"><g id="Слой_1-2" data-name="Слой 1"><path class="cls-1" d="M321.65,376.35c-14.35.71-27.08-4.7-39.07-12.64-15.32-10.13-30.93-19.85-46.13-30.17-24.64-16.71-49.18-33.55-72.53-52.11a653.79,653.79,0,0,1-69.46-64.12A736.93,736.93,0,0,1,37.3,148C28,135.3,18.56,122.73,9.82,109.7-.69,94-2.24,76.74,2.69,58.8a55.68,55.68,0,0,1,14.7-24.87c5.06-5.05,10.2-10,15.16-15.19,2-2,3.11-2.45,5.5-.13,25.74,25,52,49.4,77.25,74.92,3.5,3.55,7.21,6.9,11,10.14,2.25,1.94,1.9,3.34,0,5.24-3,2.91-5.65,6.07-8.48,9.1-4.25,4.54-4.67,9.7-1.25,14.82,11.91,17.79,25.72,34,40.42,49.58a506.41,506.41,0,0,0,71,62.11,280.4,280.4,0,0,0,25,16.29c3.84,2.22,8.08,1.62,11.41-1.66a113.18,113.18,0,0,0,8.74-9.46c1.53-1.91,2.61-1.47,4.06-.31q29.8,24,59.6,48c14.17,11.42,28.29,22.9,42.48,34.31,1.76,1.42,3.79,2.57,1.73,5.11-7.8,9.64-14.32,20.39-24.38,28.05C345.6,373.2,336.08,376.33,321.65,376.35Z"/><path class="cls-2" d="M385.84,328.57,314.32,271q-16.26-13.08-32.54-26.13c-1-.8-3-.89-1.35-3.11,7.6-10,19.93-16.15,32.16-12.87a17.17,17.17,0,0,1,6.4,3.69c22.33,18,44.6,36,67,53.9,7.44,5.93,8.48,13.94,7.63,22.37C392.92,315.8,390.21,322.25,385.84,328.57Z"/><path class="cls-2" d="M40,12.6C49,4.4,58.15-.65,69.79.07c4.33.27,8,1.4,11.16,4.52q28.64,28.13,57.41,56.11A23.55,23.55,0,0,1,143,88a46.26,46.26,0,0,1-7.39,10.51c-2,2.3-3.18,2.3-5.38.13Q110.17,78.91,89.83,59.44q-22.44-21.6-45-43.08A60.63,60.63,0,0,0,40,12.6Z"/></g></g></svg>