<?xml version="1.0" encoding="UTF-8" standalone="no"?><svg xmlns="http://www.w3.org/2000/svg" viewBox="0 0 380.72 332.28"><defs><style>.cls-1{fill:#202020;}.cls-2{fill:#5ac3e8;}</style></defs><g id="Слой_2" data-name="Слой 2"><g id="Слой_1-2" data-name="Слой 1"><path class="cls-1" d="M190.64,332.26q-71.31,0-142.63,0c-22.49,0-39.3-11.63-45.82-31.77A48.79,48.79,0,0,1,.05,285.33Q0,181.91.06,78.49c.05-28.2,21.27-46.67,46.27-46.44,5,0,10,.15,15-.06,2.78-.11,3.59.7,3.65,3.55.17,7.1-1.08,14.26.73,21.28,2.77,10.73,12.79,16.95,24.84,15.5C100.44,71.13,108,62.07,108,51.47c0-5,.29-10-.09-14.95-.31-4,1.19-4.7,4.78-4.55,6.64.29,13.29.07,19.94.09,4.34,0,6.26,2.09,5.59,6.39a54.88,54.88,0,0,0,.36,20.08,19.4,19.4,0,0,0,18.56,15.12c9.81,0,18.23-3.84,20.73-14.35,1.88-7.88,1.62-15.74,1.59-23.64,0-2.71.6-3.75,3.54-3.68,8,.21,16,.24,23.93,0,3-.1,3.73,1.16,3.75,3.63,0,6.44.27,12.88.08,19.32-.45,15,7.91,17.76,18.14,18.76,7,.69,12.73-2.51,18.2-6.31,3.71-2.59,5.19-6.46,5.08-10.71-.19-7.3.79-14.52,1.13-21.78.09-2.1.58-2.92,2.8-2.87q9.22.2,18.45,0c2.32-.06,2.76.9,2.72,2.93-.1,5.32,0,10.64,0,16,0,12.42,9.25,21.77,21.51,21.77A21.24,21.24,0,0,0,320.33,51c0-5.31,0-10.63,0-16,0-1.51-.19-3,2.13-3,12.07,0,24.25-1,35.29,5.66,14.82,8.9,22.79,21.87,22.86,39.15.18,43.85.1,87.71.1,131.56,0,25.41-.09,50.83,0,76.24,0,13.28-3.56,25-13.33,34.48-9.55,9.33-21,13.17-34.1,13.15Q262,332.21,190.64,332.26ZM190.4,104.1c-56.18,0-112.35.06-168.53-.12-4.48,0-5.37,1.11-5.36,5.42q.24,89.45.1,178.89c0,14.91,12.9,27.9,27.78,27.89q26.42,0,52.85,0H336.07a28.28,28.28,0,0,0,28.45-28.66q0-89.2.09-178.39c0-4.16-1.13-5.12-5.19-5.11Q274.91,104.21,190.4,104.1Z"/><path class="cls-2" d="M244.35,33c0,6.8.07,13.6,0,20.4C244.22,61,238.73,66,230.7,65.88,225,65.81,219.43,60,219.38,53.67c-.11-13.76-.14-27.53,0-41.3C219.47,4.06,224.23-.17,232.74,0c7.17.15,11.56,4.89,11.6,12.6C244.37,19.41,244.35,26.21,244.35,33Z"/><path class="cls-2" d="M171.62,32.72c0,6.64,0,13.28,0,19.92A11.53,11.53,0,0,1,165,63.49a13.75,13.75,0,0,1-13.69-.2c-4.47-2.55-4.05-6.88-4.62-10.82-1.9-13.17.17-26.35.06-39.54-.07-8.45,4.55-11.92,14.2-11.77,6.74.1,10.65,4.49,10.7,12.14C171.66,19.77,171.62,26.24,171.62,32.72Z"/><path class="cls-2" d="M311.08,31.26c0,6.15,0,12.3,0,18.44C311,57.39,305.43,63,298,62.87c-6.43-.11-10.89-5.29-10.91-12.74q0-19.18,0-38.37C287.12,4.7,291.56.1,298.34,0S311,5.37,311.06,11.83,311.08,24.78,311.08,31.26Z"/><path class="cls-2" d="M74.69,31.53c0-6.63,0-13.26,0-19.89.07-7,4.78-11.7,11.41-11.63C93.5.09,98.59,4.73,98.63,11.7q.12,19.63,0,39.28c0,6.67-6.15,12.09-13.21,11.9-5.57-.15-10.7-5.83-10.73-12C74.67,44.46,74.69,38,74.69,31.53Z"/><path class="cls-2" d="M190.47,207.48h40.94c-3.89,5.09-7.14,9.77-10.82,14.09-15,17.52-28.44,36.24-43.79,53.44-.75.83-1.16,2.46-2.48,1.83-1.51-.72-.79-2.29-.33-3.48q6.81-17.69,13.66-35.36c1.36-3.54,2.13-7.43,4.1-10.57,2.91-4.64-.1-3.9-2.85-3.91-10.42-.07-20.84-.19-31.26-.26-2.27,0-3.11-.87-2-3q10.31-20.91,20.64-41.81c.81-1.63,2.22-3.09,2.56-4.79,1.62-8.24,6.89-9.92,14.42-9.16,5.92.6,11.95.22,17.92.08,2.85-.06,3.49.61,2.18,3.32-3.76,7.74-8.7,14.79-12.93,22.25C197.25,195.66,194.07,201.18,190.47,207.48Z"/><path class="cls-2" d="M142,143.17a3.74,3.74,0,0,1,2.21,1.86c3.71,5.27,7.45,10.51,11.1,15.81,1.35,2,2.65,4.17-.16,5.94-2.59,1.64-3.47-.85-4.54-2.35q-5.44-7.65-10.69-15.44c-.79-1.18-1.87-2.5-.84-4.09A4.48,4.48,0,0,1,142,143.17Z"/><path class="cls-2" d="M179.43,143.27c0,3.15,0,6.3,0,9.46,0,2.09-.61,3.75-2.9,3.83-2.66.09-3.15-1.81-3.14-4.05,0-6.64,0-13.28,0-19.92,0-1.8.34-3.58,2.41-3.7a3.26,3.26,0,0,1,3.51,3.42c.17,3.65,0,7.3,0,11Z"/><path class="cls-2" d="M121.12,175.75c8.71.71,15.31,4.85,22.76,6a2.52,2.52,0,0,1,1.92,3.07,3.55,3.55,0,0,1-4.32,2.41c-6.79-1.86-13.54-3.9-20.24-6a3.33,3.33,0,0,1-2.47-3.83A1.81,1.81,0,0,1,121.12,175.75Z"/><path class="cls-2" d="M258.3,239.63c-.17,2.59.64,5.83-2.6,6.16-2.2.23-2.15-2.6-2-4.31.23-2.47-.36-6.29,2.62-6.62C259.51,234.5,257.54,238.15,258.3,239.63Z"/><path class="cls-2" d="M250.1,247.82c-.38,1.66-1.39,2.74-3,1.42a54.63,54.63,0,0,1-5.59-5.49,2,2,0,0,1,.07-3.05c1.15-1.11,1.93-.43,2.9.39C246.76,243,250.09,246.78,250.1,247.82Z"/><path class="cls-2" d="M274.11,259.17c-.12.92-.87,1.88-1.49,1.72-3.29-.85-6.81-1.08-9.71-3.1-.35-.24-.3-1.16-.3-1.77,0-.22.4-.47.65-.66,1-.77,10.24,1.67,10.75,2.85A3,3,0,0,1,274.11,259.17Z"/><path class="cls-2" d="M249.12,261.39c2-.16,2.43.92,2.08,2.15a7.88,7.88,0,0,1-1.66,2.9c-1.61,1.83-2.4,4.89-5.77,4.24-.8-.16-1.59-1-1.06-1.85C244.56,266,246.39,263.09,249.12,261.39Z"/><path class="cls-2" d="M258.87,261.54c2.19.93,2.63,3.19,3.44,5.06s3.57,4.13,1,5.48-3.43-2.13-4.55-3.95a15,15,0,0,1-1.77-4C256.69,262.83,257.44,261.91,258.87,261.54Z"/><path class="cls-2" d="M242.16,254.35c1.32.88,4.77-1.69,4.77,1.52,0,2.58-3.33,2.39-5.59,2.36a27.92,27.92,0,0,1-3.42-.22c-1.43-.18-2.61-.84-2.33-2.49s1.73-1.1,2.78-1.16S240.66,254.35,242.16,254.35Z"/><path class="cls-2" d="M269.19,242.28c.62.32,1.35.48,1.66.93a1.8,1.8,0,0,1-.31,2.25c-1.94,2.38-5.05,2.92-7.39,4.67-.25.18-1.44-.3-1.56-.67-.23-.72-.33-2,.08-2.32C264,245.43,266.57,243.93,269.19,242.28Z"/></g></g></svg>