<?xml version="1.0" encoding="UTF-8" standalone="no"?><svg xmlns="http://www.w3.org/2000/svg" viewBox="0 0 426.5 364.96"><defs><style>.cls-1{fill:#5cc4e6;}.cls-2{fill:#0a0b0c;}</style></defs><g id="Слой_2" data-name="Слой 2"><g id="Слой_1-2" data-name="Слой 1"><path class="cls-1" d="M122.23,327.67c0-.66-.1-1.31-.1-2,0-29.37,0-58.75-.07-88.12,0-3.1.75-4.16,4-4.17,6.27,0,12.59.84,18.8-.66a25.8,25.8,0,0,0,19.22-22.28c0-.51.42-1.05.34-1.52-2.31-12.77,8.25-18.22,15.26-24.95,8.29-8,16.3-16.22,24.68-24.08,9.77-9.16,20.22-17.66,29.24-27.49,7.08-7.71,15.39-14,22.41-21.72,5.11-5.62,10.31-11.35,16.28-16s5.58-9.88,4.17-15.77a30.5,30.5,0,0,1-1.2-8.3C276,59.34,277.44,48,283.17,38c10.9-19,27.16-30.88,48.76-35.5A91.5,91.5,0,0,1,357.61.17c3.35.23,6.6,1.47,10,2,2.22.34,3.13,3,2.5,5.53-.47,2-1.87,3.2-3.2,4.52q-17.49,17.24-35,34.47c-4.56,4.52-3.85,11.29,1.37,15a20.12,20.12,0,0,1,3.84,3.53c7.23,8.8,16.45,15.64,23.9,24.24,2.74,3.16,7.16,2.09,10.57,1,2.7-.83,5.75-2.17,7-5.45.41-1,1.54-1.83,2.4-2.68q16.31-16.12,32.63-32.23c4.21-4.14,9.63-2.76,10.79,3A84.61,84.61,0,0,1,426,80.3c-1.24,10.59-5.18,19.73-9.95,28.68-4.57,8.56-11.71,15-19.58,20.69-13.36,9.63-28.47,13-44.55,12.63-8.68-.18-17.22-1.63-25.18-5.35-3.32-1.54-5.71-.81-8.14,1.8-11.07,11.86-22.9,22.91-34.93,33.8-10.39,9.39-19.42,20.27-29.78,29.69-19.36,17.61-37.05,36.92-56.26,54.65-11.32,10.45-21.71,21.87-33.35,31.93-7.39,6.39-13.87,13.67-21.18,20.13-3.43,3-6.55,6.63-9.77,10S125.9,324.44,122.23,327.67Z"/><path class="cls-2" d="M.21,137.94c0-22.8.18-45.6-.11-68.4C0,62.32,2.08,56.79,8.36,53.1A18.5,18.5,0,0,1,18,50.83q59.77,0,119.55.09c11.35,0,18,7,18,18.43,0,45.46-.14,90.93.12,136.39.06,9.41-7,19.45-19,19.07-6.83-.21-13.69.12-20.52-.11-2.55-.09-3.16.55-3.11,3,.15,8.45-.11,16.91.15,25.35.08,2.68-.48,3.44-3.17,3.5-21.6.43-43.2.25-64.8.19-2.22,0-3-.65-2.93-3,.15-8.45-.06-16.9.08-25.35.05-2.79-.35-3.94-3.65-3.77-6.82.38-13.68.17-20.52.14C8.81,224.73,3.35,220.65.3,211.84c-.63-1.81-.07-3.42-.08-5.1-.09-22.93-.06-45.87-.06-68.8Zm133.36,1c0-19.58-.06-39.16.07-58.74,0-2.81-.69-3.54-3.52-3.53q-52.53.15-105.07,0c-2.95,0-3.41.91-3.41,3.6q.08,58.55-.16,117.08c0,3.37,1.45,3.21,3.79,3.21q52.34-.08,104.66,0c3,0,3.75-.71,3.72-3.73C133.5,177.56,133.57,158.24,133.57,138.93ZM77.81,226.46a8.45,8.45,0,0,0,8.65-8.21c0-4.48-4.39-8.94-8.71-8.88-4.57.06-9,4.22-9,8.51C68.65,222.75,72.64,226.51,77.81,226.46Z"/><path class="cls-2" d="M403.75,329.54c0,15.59-8.12,28-19.47,32.62-13.76,5.54-27.8,2.77-37.61-7.35Q317.85,325.07,289,295.37q-27.51-28.22-55.2-56.24c-2.1-2.12-2.22-3.3,0-5.42q19.22-18.3,38.13-36.92c2.08-2,3.07-1.46,4.81.21q38.55,37,77.22,74l40.36,38.66A29.8,29.8,0,0,1,403.75,329.54Zm-47,2a12.77,12.77,0,0,0,12.89,13.53c8.28-.08,13.34-6,13.52-13.38.16-6.87-6.26-12.85-13.26-12.76C362.12,319.08,355.87,325.7,356.78,331.59Z"/><path class="cls-2" d="M77.82,268.86c10.6,0,21.2.1,31.8-.07,2.85-.05,3.56.78,3.55,3.57-.07,20.12,0,40.23,0,60.35,0,8.35-8,16.47-16.6,16.56q-19.11.21-38.24,0c-8.32-.1-16.17-8.16-16.18-16.46,0-20.25.1-40.5,0-60.75,0-2.79.93-3.27,3.42-3.24C56.35,268.93,67.09,268.86,77.82,268.86ZM78,319.62v.08a53.85,53.85,0,0,0-7.19.07c-2,.27-3.83,1.17-3.74,3.84s1.6,3.57,3.83,3.62c4.53.09,9.05,0,13.58,0,2.41,0,3.79-1.43,3.76-3.72a3.84,3.84,0,0,0-3.85-3.86C82.25,319.47,80.11,319.62,78,319.62Zm-.87-8v-.24h7.59a3.39,3.39,0,0,0,3.6-3.06,3.46,3.46,0,0,0-3-4.13,112.64,112.64,0,0,0-15.15-.11c-2,.13-3.54,1.78-3.12,4.31.38,2.33,2,2.87,4,2.94S75.11,311.55,77.11,311.65Zm.27-16.1c2.27,0,4.55,0,6.82,0s4-1,4-3.43a3.9,3.9,0,0,0-4-4.15c-4.37-.13-8.75-.22-13.11,0-2.14.13-4.12,1.18-4,4,.08,2.5,1.47,3.57,3.86,3.57Z"/><path class="cls-2" d="M164.67,87.09c2.71,2.65,4.78,4.63,6.81,6.66,13.72,13.77,27.39,27.59,41.21,41.26,2,2,1.94,3.1-.08,5q-19.34,18.47-38.46,37.16c-1.5,1.47-2.14,1.67-4.1.13-4.62-3.62-5.51-8.07-5.47-13.57.21-24.14.09-48.27.09-72.41Z"/><path class="cls-2" d="M128.35,42.17c-8.28,0-15.35,0-22.42,0-1.75,0-2.53-1.35-3.52-2.38C97.74,35,93.05,30.23,88.49,25.34a6.2,6.2,0,0,0-7.26-1.71c-2.74,1-3.25,3.45-3.38,5.88a93.94,93.94,0,0,0,0,9.64c.11,2.19-.47,3.12-2.88,3-3.88-.19-7.77,0-11.66,0-1.05,0-2.38.21-2.34-1.39.17-7.81-1.36-15.85,3.16-23.07,7.64-12.18,23.22-14.89,34.4-6a30.3,30.3,0,0,1,3,2.68C110.19,23.34,118.81,32.28,128.35,42.17Z"/><path class="cls-1" d="M41.29,137.1c4.52-10.55,9.6-19.3,14.23-28.27a4.53,4.53,0,0,1,4.92-2.6c2.22.2,2.81,1.75,3.48,3.37L79.1,146.19c.28.67,0,1.83,1.15,1.77.89,0,1.21-.93,1.55-1.66l9.47-19.86c2.18-4.57,4.25-9.2,6.59-13.68,1.87-3.6,5.69-3.73,7.93-.33,2.62,4,5.24,8,7.52,12.15a4.71,4.71,0,0,0,5.15,2.78c2-.17,4,0,6,0,2.85-.08,3.87,1.85,3.84,4.09s-1.13,4.06-4,4c-3.75-.11-7.51-.11-11.26,0a4.68,4.68,0,0,1-4.27-2.49c-1-1.58-1.94-3.2-2.92-4.79s-1.67-4.49-3.51-4.37-2.22,3-3.06,4.79c-4.85,10.18-9.6,20.4-14.42,30.6-1,2.17-1.93,4.52-5.07,4.33s-3.21-2.67-4.14-4.69q-8.1-17.53-15-35.57c-.36-.92-.6-2.23-2-2.21s-.85,1.42-1.29,2.12c-4.38,7-7.19,14.76-11.18,21.94-1.45,2.62-3.94,3.39-6.22,1.39a27,27,0,0,1-4.66-5c-1.42-2.09-2.75-3.63-5.59-3.87a3.76,3.76,0,0,1-3.52-4.14c.2-2.27,1.86-2.84,4-3C35.05,130.18,39.51,130.25,41.29,137.1Z"/></g></g></svg>