<?xml version="1.0" encoding="UTF-8" standalone="no"?><svg xmlns="http://www.w3.org/2000/svg" viewBox="0 0 333.26 370.22"><defs><style>.cls-1{fill:#050506;}.cls-2{fill:#59c3e7;}</style></defs><g id="Слой_2" data-name="Слой 2"><g id="Слой_1-2" data-name="Слой 1"><path class="cls-1" d="M166.63,86.78c21.2,0,42.39,0,63.58-.06,2.72,0,4.26.34,3.67,3.48-.19,1-.12,2.08,1,2.57,3,1.25,3.37,4.06,3.47,6.67a95.32,95.32,0,0,1-4.27,30.39,96.89,96.89,0,0,1-16.8,33.2c-9.28,11.7-20.45,21.06-35.24,25.22-6.53,1.84-13.21,3.19-19.93,2.33a63.5,63.5,0,0,1-24.38-8.1A79.92,79.92,0,0,1,120,168a88.4,88.4,0,0,1-16.78-26.4,98.37,98.37,0,0,1-6.91-22.06c-1.33-7.71-2.65-15.51-1-23.39.08-.39,0-1,.25-1.14,2.56-1.88,4.52-3.9,4-7.58-.16-1.11,1.67-.58,2.56-.58Q134.4,86.75,166.63,86.78Z"/><path class="cls-1" d="M84.85,220.51v2c0,27.14,0,54.29.08,81.43,0,2.85-.87,3.35-3.41,3.22-4.12-.2-8.28.07-12.41-.11-2-.08-2.43.6-2.43,2.51.07,19,0,37.94.1,56.91,0,2.61-.43,3.61-3.39,3.59-20.09-.16-40.17-.13-60.26,0-2.55,0-3.13-.71-3.12-3.17.1-21.9-.16-43.8.15-65.69a63.32,63.32,0,0,1,8.23-29.87,68.21,68.21,0,0,1,11.15-15.4c6.42-6.47,13.63-12,22.32-15.45,6.59-2.62,12.91-5.92,19.35-8.92Z"/><path class="cls-1" d="M248.67,220.7q10.87,5,21.74,10.06c7.8,3.6,15.69,7,23.41,10.79a70.73,70.73,0,0,1,23.5,19c6.44,7.77,10.55,16.55,13.35,26.12a57.94,57.94,0,0,1,2.44,15.71c.21,21.49,0,43,.15,64.47,0,2.52-.63,3.19-3.16,3.18q-30.44-.17-60.86,0c-2.31,0-2.82-.62-2.81-2.86.09-19.17,0-38.34.11-57.51,0-2.13-.56-2.68-2.63-2.6-4.44.16-8.88,0-13.32.07-1.4,0-2.22-.08-2.21-1.88q.1-42.07.11-84.14C248.49,221,248.56,221,248.67,220.7Z"/><path class="cls-2" d="M166.27,370.16c-20.59,0-41.18,0-61.77.06-2.55,0-3.19-.73-3.18-3.22q.15-30,0-59.94c0-2.57.67-3.55,3.41-3.54q61.77.11,123.53,0c2.64,0,3.51.8,3.5,3.46q-.14,30.12,0,60.24c0,2.5-.85,3-3.14,3C207.85,370.13,187.06,370.16,166.27,370.16Z"/><path class="cls-1" d="M166.56,270.26c-18.36,0-36.73,0-55.09.06-2.28,0-2.82-.57-2.81-2.83q.15-27.09,0-54.17c0-1.88.52-2.84,2.24-3.59,6.15-2.69,11.92-6.14,17.8-9.38a1.8,1.8,0,0,1,1.86-.07,103.69,103.69,0,0,0,23,5.68,111.66,111.66,0,0,0,24,.4,83.77,83.77,0,0,0,24.73-5.9c.62-.25,1-.77,1.89-.32,6.25,3.38,12.52,6.73,18.83,10a2.15,2.15,0,0,1,1.35,2.27c0,18.66-.06,37.32,0,56,0,2.45-1.47,1.87-2.76,1.88Z"/><path class="cls-1" d="M290.68,92.81a25.34,25.34,0,0,1,9.6,1.27c3.08,1,3.26,2.19,1.29,4.58-5.37,6.52-11.95,11.89-17.25,18.47a5.26,5.26,0,0,0,.13,7.1c4.12,4.25,8.38,8.35,12.86,12.23,2.17,1.87,5.89,1.18,7.76-.77q8.69-9,17.4-18c2-2,3.82-1.61,4.66,1.16,4.24,13.95,2.17,26.65-7.4,38-8.24,9.74-18.91,13.17-31.25,12.34a20.24,20.24,0,0,1-6.87-1.51c-2.55-1.15-4-.49-5.81,1.36-9.77,9.92-19.8,19.59-29.47,29.6-3.33,3.45-6.56,7-10,10.42-.57.57-.9,1.44-2.17.69-7.12-4.23-14.5-8-22-11.64-2.48-1.21-4.76-2.83-7.26-4-2.23-1-1.67-1.84-.31-3.19,12-11.86,24-23.67,35.75-35.74,3.84-3.94,7.54-8,11.45-11.93a2.61,2.61,0,0,0,.71-3.1c-4.29-14.8-.26-30,13.3-39.7A39.54,39.54,0,0,1,290.68,92.81Z"/><path class="cls-2" d="M154.05,22.52q0,9.09,0,18.17a11.67,11.67,0,0,0,13.22,11.59C175.46,51.21,179,47.17,179,38.9Q179,21,179,3.18c0-2.89,1-3.77,3.62-2.8,2.42.88,4.87,1.62,7.33,2.35,2,.57,3,1.67,3,4.1-.18,10-.07,20-.08,30a11.22,11.22,0,0,0,.53,3.84c1.35,3.93,3.24,5.57,6.66,4.91,2.91-.56,6.29-2.7,6.17-6.94-.24-8.47-.08-16.95-.06-25.43,0-.55-.31-1.37.36-1.58a2.15,2.15,0,0,1,1.62.52c9.81,8.16,18.45,17.3,23.56,29.23,2.54,5.94,5,11.94,5.47,18.51.18,2.42,2.57,2.64,4,3.7a8,8,0,0,1,3.06,9.13c-1,2.83-5.3,5.34-8.29,5-1.44-.17-1.73-1-1.86-2.23-.41-3.85-2.85-6.1-6.7-6.33-.71,0-1.42,0-2.12,0H106.85c-5.62,0-7.26,1.4-7.89,6.92-.13,1.12-.48,1.53-1.62,1.65A8.28,8.28,0,0,1,89,72.94c-1.38-3.28-.6-7.48,2.46-9.11,3.22-1.71,4.19-3.89,4.72-7.42.71-4.64,2.49-9.13,4.33-13.58,5.21-12.55,14.08-22,24.25-30.57.6-.5,1.32-1.15,2.1-.8s.4,1.27.4,1.93c0,8.68,0,17.36,0,26,0,2.78,2.69,6.11,4.92,6.18,4.75.14,7.32-2.05,7.33-6.33,0-10.69.05-21.39,0-32.08,0-2.39.75-3.5,3.14-4.29,2.85-.93,5.78-1.42,8.59-2.31,2.54-.81,2.79.31,2.78,2.26Q154,12.69,154.05,22.52Z"/><path class="cls-2" d="M127.08,194.25c-4.19,3.36-9.12,5.21-13.67,7.74-5.49,3.06-11.12,5.88-16.65,8.86a2.54,2.54,0,0,1-3.46-.41c-6.71-6.19-13.52-12.27-20.3-18.39-.38-.33-.73-.84-1.17-.93-3-.64-3.28-6.07-7.64-4.32-3,1.2-6.17,1.65-9.19,2.58-5.07,1.56-9.85.87-14.7-.48C24.47,184.51,16.09,173.65,12.67,158c-1.07-4.92-.56-9.43.24-14.11.48-2.79,2.68-3.43,5.1-1.39,2.27,1.91,4.23,4.13,6.6,6,4.11,3.17,7.54,7.15,11.77,10.21.93.68,1.62,2.35,2.81,1.85,1.81-.77,4-.94,5.33-2.67a116.86,116.86,0,0,1,9.73-11c3.57-3.7,3-6.67-1.09-10.06-4.94-4.11-9.6-8.57-14.36-12.89A16.19,16.19,0,0,0,36,121.61c-2.38-1.37-2.21-3.72.28-5,6.59-3.48,13.86-4,20.85-2.89A40,40,0,0,1,73.91,120c12,8.44,17.83,22.35,14.33,36.82a3.92,3.92,0,0,0,1.68,4.6c4.35,3.39,8.38,7.17,12.48,10.86,4.85,4.37,9.9,8.5,14.74,12.85C120.46,188.12,124.39,190.54,127.08,194.25Z"/></g></g></svg>