<?xml version="1.0" encoding="UTF-8" standalone="no"?><svg xmlns="http://www.w3.org/2000/svg" viewBox="0 0 203.31 187.48"><defs><style>.cls-1{fill:#1d1d1b;}.cls-2{fill:#5ec4e8;}</style></defs><g id="Слой_2" data-name="Слой 2"><g id="Слой_1-2" data-name="Слой 1"><path class="cls-1" d="M127.2,164.8l-21.49-48.32c-3.14-7.08-4.59-16.16-9.92-20.67-5-4.26-14.1-3.68-21.39-5.29-6.26-1.37-12.5-2.82-19.27-4.35,1.86,3.25.82,6.11.63,8.86-.33,4.94-1.1,9.84-1.72,14.76a11.41,11.41,0,0,0,1.57,7.55c3.42,5.83,6.29,12,9.72,17.8s3.49,12.61,4.61,19.06c1.35,7.8,2.74,15.61,3.85,23.45.75,5.29-2.15,9.14-6.84,9.76-4.43.58-8-2.22-9-7.25-.64-3.06-1.18-6.15-1.73-9.24-1.14-6.33-2.21-12.68-3.38-19-1.83-9.89-8.93-17-14.16-25.43-.61,5.34-1.36,10.67-1.76,16a23.43,23.43,0,0,1-3.75,11.55c-6.09,9.24-11.92,18.66-17.89,28-3.21,5-7.66,6.46-11.64,3.84-4.14-2.72-4.76-7-1.75-12.15,4.41-7.57,8.67-15.24,13.33-22.66a31.51,31.51,0,0,0,4.45-14.36c1-10.65.72-21.35,1.66-32,1.43-16.1,3.37-32.17,5.25-48.24C27.33,50,31.32,45.12,36.27,44c6.79-1.56,15.46,1.28,18.19,7.16,3.52,7.59,9.87,12.73,14.63,19.2.87,1.19,4,1.83,1.41,4.51-.79.81.94.74,1.55.88,6.6,1.49,13.18,3.06,19.81,4.35a11.52,11.52,0,0,1,8.82,7.14c10.3,23.22,20.38,46.54,31,69.61C134.45,162.86,128.39,161.34,127.2,164.8Z"/><path class="cls-2" d="M164.5,66.84c3.15-.23,4.25.51,5.16,2.6q13.83,31.92,28,63.7c1.36,3.06.31,4.54-2.42,5.77-14.08,6.39-28.1,12.9-42.21,19.24-4.19,1.89-8.11,4.9-13.4,2.29-1.68-.84-3.1-1.26-3.89-3.05q-13.48-30.54-27.06-61c-1.48-3.31.43-4.61,2.81-5.69Q131.7,81.5,152,72.43Zm-9.21,32.64a19.48,19.48,0,0,0-19.61,19.91,20,20,0,0,0,19.95,19.84c10.64-.08,19.75-9.39,19.72-20.16A19.66,19.66,0,0,0,155.29,99.48Zm-21.54-3.36c.06-2.9-3.22-7-4.83-6.32-3.63,1.5-7.2,3.13-10.74,4.82-1.66.79-2,2.16-.86,3.64s.59,5.16,3.55,4.31c4.2-1.22,8.14-3.37,12.15-5.22C133.48,97.14,133.65,96.31,133.75,96.12Zm31.72-17.46c-.47-1.31-1.34-2.68-2.88-2.79a2.86,2.86,0,0,0-2.94,2.76,2.69,2.69,0,0,0,2.68,3C164.1,81.7,164.89,80.41,165.47,78.66Zm-9.34,4.06c-.33-1.67-1.28-3-2.9-2.87a2.76,2.76,0,0,0-2.69,2.94,2.54,2.54,0,0,0,2.76,2.77C155.05,85.54,155.71,84.16,156.13,82.72ZM145,87.24c-.2-2.21-1.17-3-3-2.82a2.63,2.63,0,1,0,3,2.82Z"/><path class="cls-2" d="M32.25,20.92c-4.85-2.34-4.89-2.94-1.76-7,1.69-2.17,2.73-4.83,4.22-7.17C35.84,5,37,3.12,39.38,2.8c1,.82.46,1.88.62,2.79s.14,2.25,1.55,2,1-1.44.87-2.42a21.08,21.08,0,0,1-.23-3C42.2.43,43.41.11,44.87,0S47,.67,47,2.06c0,.82,0,1.66.08,2.48.13,1.22-.44,3.06,1.43,3.17,2,.12,1.39-1.76,1.54-3a8.17,8.17,0,0,0,0-1C50.07,2,49.69,0,52.57,0S55,2.09,54.84,3.84c-.13,1.3-.82,3.15.82,3.34,1.89.22,1.3-1.81,1.37-3,.17-2.8,1.73-1.93,2.92-1,2.86,2.33,5.31,5,6,8.82.35,1.91,1.11,3.06,3.19,3s3.77.35,3.73,2.82c0,2.71-2,3.07-4.16,3.07-1.32,0-2.65.06-4,.09Z"/><path class="cls-1" d="M32.25,20.92l32.48,0C66,28.67,63.9,35,57,39.19c-5.82,3.49-11.83,3.51-17.58-.28C32.92,34.61,31,28.36,32.25,20.92Z"/><path class="cls-1" d="M152.72,170.05c-2.05-.91-2.35-3.5-3.73-5.15-1.13-1.36,1-1.58,1.9-2q23.12-10.6,46.26-21.12c2.43-1.11,4.69-1.06,5.83,1.63,1.06,2.51-.58,4-2.74,5l-45.85,20.8C153.94,169.42,153.5,169.66,152.72,170.05Z"/><path class="cls-1" d="M137.55,187.48a11.63,11.63,0,0,1-11.89-11.86,11.78,11.78,0,0,1,11.91-11.92,11.89,11.89,0,1,1,0,23.78Zm.59-6.27a5.3,5.3,0,0,0,5.12-5.73,5.24,5.24,0,0,0-5.81-5.44c-3.48.15-5.68,2.32-5.59,5.7S134.1,181.11,138.14,181.21Z"/><path class="cls-1" d="M133.75,96.12c-.1.19-.27,1-.73,1.23-4,1.85-8,4-12.15,5.22-3,.85-2.37-2.82-3.55-4.31s-.8-2.85.86-3.64c3.54-1.69,7.11-3.32,10.74-4.82C130.53,89.14,133.81,93.22,133.75,96.12Z"/><path class="cls-1" d="M165.47,78.66c-.58,1.75-1.37,3-3.14,2.92a2.69,2.69,0,0,1-2.68-3,2.86,2.86,0,0,1,2.94-2.76C164.13,76,165,77.35,165.47,78.66Z"/><path class="cls-1" d="M156.13,82.72c-.42,1.44-1.08,2.82-2.83,2.84a2.54,2.54,0,0,1-2.76-2.77,2.76,2.76,0,0,1,2.69-2.94C154.85,79.75,155.8,81.05,156.13,82.72Z"/><path class="cls-1" d="M145,87.24a2.69,2.69,0,1,1-3-2.82C143.8,84.19,144.77,85,145,87.24Z"/><path class="cls-2" d="M138.14,181.21c-4-.1-6.19-2.14-6.28-5.47s2.11-5.55,5.59-5.7a5.24,5.24,0,0,1,5.81,5.44A5.3,5.3,0,0,1,138.14,181.21Z"/><path class="cls-1" d="M155.93,133.69c-7.06,0-11.38-3.25-13.94-8.77-2.74-5.91-1.12-11.34,2.94-16.06,3.49-4.06,9.81-5.33,15.06-3.55,2.26.76,3.5,1.77,3.72,4.44.25,3.09.95,6.46,3.37,8.59,3.81,3.35,2.36,6.46.13,9.57C164.31,131.94,160.27,133.92,155.93,133.69Z"/></g></g></svg>