<?xml version="1.0" encoding="UTF-8" standalone="no"?><svg xmlns="http://www.w3.org/2000/svg" viewBox="0 0 357.75 164.62"><defs><style>.cls-1{fill:#f1c7a5;}.cls-2{fill:#2f2f30;}.cls-3{fill:#5cc4e8;}.cls-4{fill:#9bb2bf;}.cls-5{fill:#c5b6aa;}</style></defs><g id="Слой_2" data-name="Слой 2"><g id="Слой_1-2" data-name="Слой 1"><path class="cls-1" d="M232.75,131.7c2.43,7.17-2.39,14.15-9.44,13.6-3.36-.26-5.81-2.54-8.17-4.45-7.08-5.71-14.63-10.8-21.71-16.51-.79-.63-1.71-1.16-2.48-.44-1,1-.11,2.16.61,2.64,4.16,2.74,7.67,6.29,11.85,9,2.39,1.57,4.86,3.11,7.12,4.86,3.28,2.53,2.78,6.36,2.16,9.73-.5,2.66-2.95,4-5.41,5.34-4.17,2.35-7,.31-10-1.83-6.52-4.73-13-9.57-19.38-14.41-1-.77-2.15-1.33-2.95-.17s.57,1.85,1.29,2.4c4.11,3.15,8.49,5.92,12.37,9.4,2.48,2.22,2.8,8.2.23,10.54-4.13,3.75-12.41,2.49-15.28-2.32a2,2,0,0,1-.2-1.75c2-6-1.31-12.91-8.09-14-1.36-.22-1.8-1.15-.92-2.22a7.84,7.84,0,0,0,.76-8.71c-1.93-3.75-4.83-7.33-10.07-6.56-1.52.22-2.93-.53-4.54,0-1.38.47-1.43-1-1.54-2-.46-4.35-4.11-8.12-8.47-8.18-2.66,0-5.55-1-8.07,1-.68.55-1.06-.12-1.55-.81-1.63-2.32-3.1-4.81-5.54-6.44l-.71-.61,0,0a10.33,10.33,0,0,0-10.54.57c-1.2,1.93-3.62,2.52-4.86,4.46-.68,1-1.53.23-2-.4-4.26-5.66-10.86-7.22-17-9.65a37.65,37.65,0,0,1-4-1.61c-2.25-1.2-3.12-4-1.28-5.8.94-.93.91-2,1.42-2.95,1.88-3.52,2.45-7.58,4.81-10.94a14.25,14.25,0,0,0,2-4.74c.75-3.45,2.46-6.54,3.78-9.59,1.17-2.71,1-6.26,3.81-8.3a2.41,2.41,0,0,0,.73-2c-.48-3.46,3.12-5.35,3.23-8.59,0-.58.7-1.6,1.5-1,3.77,2.94,8.51,3,12.75,4.55a31.35,31.35,0,0,0,14.29.07l-.05,0,.71-.62L147,49.23c.73.33,1.59.46,2,1.31v0c-1.69.24-1.18,1.58-1.3,2.6-3.44,4-6.94,7.92-10.29,12-2,2.38-3.29,8,.08,10.85A12,12,0,0,1,139,77.81c.69.86,1.66.47,2.52.57l0,0c1.5,1.81,6.52,1.86,8.71.09a39.87,39.87,0,0,0,14.23-7.37c3-2.33,6.08-4.45,9.94-5.12,3.65,1.34,7.59.16,11.27,1.26l0,0c.19.23.39.45.58.67A110.51,110.51,0,0,1,204.6,81.09c1.94,1.67,4.46,2.94,6.6,4.52,5.26,3.86,10.33,8,15.55,11.89s10.34,7.4,15.36,11.28c2.94,2.27,6.37,4.22,7.54,8.13s-.42,8-4.33,10.5a8.92,8.92,0,0,1-10.52-.22C225.2,120.1,215.58,113.05,206,106c-1.14-.84-1.88-2.24-3.37-2.63-.69-.18-1.5-.39-2,.37-.36.6.08,1.13.46,1.65,2.27,3.16,5.57,5.28,8.71,7.2,3.49,2.14,6.24,5,9.5,7.38,2.45,1.76,5.53,2.7,7.26,5.43l.66.77-.05,0c.42.76,1.26.88,1.93,1.26l0,0a3.86,3.86,0,0,0,1.9,1.9l0,0,.66.66,0-.05A2.09,2.09,0,0,0,232.75,131.7Z"/><path class="cls-2" d="M101.4,38.74a2.82,2.82,0,0,1-.24,1.73C98.73,46.06,96.39,51.69,94,57.3Q88.17,70.91,82.31,84.51c-2.45,5.7-4.87,11.42-7.38,17.1-1.32,3-3,3.63-5.92,2.36-7.72-3.29-15.38-6.72-23.12-10C36.15,89.9,26.35,85.93,16.57,81.9,11.93,80,7.27,78.1,2.65,76.11c-2.72-1.17-3.24-2.89-2-5.68Q7,55.31,13.37,40.18c4.44-10.53,8.83-21.09,13.34-31.6,1-2.27,3-3,5.32-2,4.42,1.82,8.78,3.79,13.18,5.66q9.49,4.06,19,8.08,12.4,5.24,24.82,10.43c2.77,1.16,5.62,2.15,8.32,3.46C99.25,35.09,102,35.48,101.4,38.74ZM62.52,91.37c2.5,0,4-1.1,4.63-3a3.75,3.75,0,0,0-1.81-4.78,33.61,33.61,0,0,0-6.5-2.79c-2-.61-3.61.57-4.55,2.36A3.71,3.71,0,0,0,55.05,88C57.29,89.84,60.16,90.52,62.52,91.37Z"/><path class="cls-3" d="M286.21,104.48a3.27,3.27,0,0,1-3.73-2.18c-2.65-6.36-5.27-12.73-7.94-19.09-1.86-4.47-3.77-8.91-5.66-13.37-2.49-5.89-5-11.75-7.44-17.67-1.68-4.12-3.55-8.17-5.25-12.28-1.29-3.09.62-4,2.42-4.79,5.61-2.61,11.26-5.18,17-7.39,5.22-2,10.25-4.43,15.41-6.55,4.35-1.79,8.82-3.37,13.09-5.45,5.77-2.81,11.85-5,17.79-7.43,1-.43,2-1.06,3-1.49,3.16-1.32,5.27-.38,6.55,2.75,2.23,5.49,4.43,11,7,16.38,2.34,5,4,10.34,6.15,15.44,3.05,7.15,6.34,14.18,9.44,21.31,1.3,3,2.45,6,3.48,9.14.53,1.58.13,2.77-1.73,3.65-7.8,3.69-15.78,7-23.71,10.35-6.5,2.74-12.95,5.69-19.62,8.11-4.4,1.6-8.69,4-13.13,5.62S291,104.08,286.21,104.48ZM299,80.87c-2.39.81-5.34,1.53-7.62,3.5a3.49,3.49,0,0,0-.76,4.5c1,1.76,2.44,3,4.51,2.44a21.61,21.61,0,0,0,6.77-2.9,3.74,3.74,0,0,0,1.51-4.6C302.79,82,301.42,81,299,80.87Z"/><path class="cls-1" d="M199.81,40a2.38,2.38,0,0,0,1.66,1.23c6.61,1.17,12.48,4.52,18.79,6.61A39.22,39.22,0,0,1,226,50.37c.91,1.38,2.32,1.39,3.75,1.34h0a12.9,12.9,0,0,0,8.73.06c3.64-1.25,7.34-2.37,10.92-3.8,2.55-1,2.73,1,3.3,2.3,2.05,4.52,4.12,9,5.93,13.68,3.55,9.15,7.65,18.09,11.55,27.11a33.31,33.31,0,0,0,1.95,4.8c1.28,2.06-.53,3.31-2.07,3.53-4.27.62-7.88,2.9-11.72,4.47-2.88,1.19-5.31,3.61-7.73,5.72-.92.8-1.26.81-2.23.19-3.21-2.07-5.82-4.87-8.88-7.1-7.08-5.17-14-10.51-21-15.78-5.34-4-10.7-8.07-16.18-11.94-4.66-3.3-8.91-7.52-14-9.7-4.32-1.84-8.89-5.4-14.32-2.95l-.73.64,0,0c-1.58,0-3.21-.16-4.38,1.26l0,0a2.23,2.23,0,0,0-2.46,1.12c-5,5.23-11.22,8.39-18,10.43a13.82,13.82,0,0,1-6.14.07c-3-.55-4.5-6.33-2.31-9,4.93-6.12,9.83-12.28,15.06-18.13,2.34-2.62,6-3.27,9.32-4.38,2.34-.78,5-.17,7.1-1.79.83-.12,1.81.3,2.4-.66l0,0c2-.23,4.2.12,5.64-1.83h0c6.41-.89,12.85-.64,19.28-.64l0,0C198.84,39.84,199.31,39.92,199.81,40Z"/><path class="cls-3" d="M155.67,20.7c0-1.22,0-2.44.07-3.66a3.46,3.46,0,0,1,3.58-3.72c2.31-.11,4.69-.23,6.91.75,3.19,1.08,6.49.19,9.73.55a4,4,0,0,0,2.62.46l10.32.19,1.57.54c3.18,1.25,6.51.19,9.74.63l2.63.07c3.39,1.14,6.9.21,10.33.62l1,.2c3.15.71,6.35.18,9.53.36,3.23,1.34,6.65,1.14,10.05,1.19,2.68.05,4.67,1.89,3.74,4.21-1.32,3.3-.47,6.48-.46,9.67,0,4.71-1.66,9.2-1.33,14,.16,2.33-2.15,3.49-4.71,2.09-6.54-3.54-13.89-5.06-20.4-8.6a7.55,7.55,0,0,0-2.64-.79c-2.61-.36-3.54-1.3-4.06-4.37-.94-5.57-2.15-11.54-9.24-13.54a8.12,8.12,0,0,0-7.91,1.67c-3.59,3-6.46,6.75-6.22,11.92,0,.94-.76,1.26-1.38,1.45-6.34,2-12.67,4-19.09,5.73a10.27,10.27,0,0,0-3.46,1.49c-2.56,1.92-2.38.45-2.63-1.57-.47-4,1.06-7.68,1.26-11.54C156.26,27.38,155.54,24,155.67,20.7Zm66.91,1.35c-3.55-.22-4.06.36-3.05,3.76a12.93,12.93,0,0,0,10.32,9.56c1.64.36,2.27,0,2.32-1.74.09-3,.31-6,.57-8.93.14-1.65-.54-2.14-2.13-2.17C227.93,22.48,225.25,22.22,222.58,22.05ZM159.5,28c-.07,2.77.38,3.17,3.48,2.64A13.5,13.5,0,0,0,173.34,21c.33-1.37.49-2.49-1.43-2.6-3.29-.2-6.59-.41-9.88-.67-1.31-.1-1.84.39-1.9,1.74C160,22.14,159.74,24.81,159.5,28Z"/><path class="cls-1" d="M136.49,146.27c-1.09-2.33.69-3.8,2.26-5.52,2.67-2.94,5.69-5.52,8.2-8.69,2-2.52,5.64-4.37,9.21-3.27a9,9,0,0,1,6.13,6.41c1.08,3.49-1,5.43-2.46,7.44-2.56,3.44-5.81,6.36-8.68,9.57-2.44,2.73-5.37,4.35-9,3.3C138.21,154.37,136.69,151.65,136.49,146.27Z"/><path class="cls-1" d="M121.55,131.58c2-2.39,4.82-4.06,6.47-6.47a17,17,0,0,1,5.24-5.29c2.85-1.7,6-1.37,9-.8a4.56,4.56,0,0,1,3.27,3.82c.47,3.73,1.07,7.54-2.66,10.4a27.12,27.12,0,0,0-5.49,6.22,10.81,10.81,0,0,1-10.76,4.86,6,6,0,0,1-5.1-4.28A23.58,23.58,0,0,1,121.55,131.58Z"/><path class="cls-1" d="M112.12,129.83c-4.59-4-4.68-7.94-1.05-13,2.54-3.51,5.46-5.12,9.81-5.1,3.22,0,4.92,1.68,6.35,4s1.42,4.43-.43,7a51.28,51.28,0,0,1-6.32,7.06A16.12,16.12,0,0,1,112.12,129.83Z"/><path class="cls-3" d="M140.26,47.32c-2.56,1.84-3.36,1.37-4.45-1.62-1.57-4.28-2.05-8.88-4.12-13-1.05-2.11,0-4.31,4.18-5.61,4.67-1.44,9.24-3.29,14.09-4.16,1-.18,2.18-.76,2.89.11a2.89,2.89,0,0,1,.07,3.22c-1.19,1.47-.75,2.86-.56,4.37.61,4.73-.58,9.27-1.59,13.83-.05.2-.5.31-.76.46C146.74,45.61,143.37,45.93,140.26,47.32Zm9.38-15.19c.06-4.29-.28-4.55-4.28-3.27-.68.21-1.38.4-2.06.62-7,2.22-7,2.22-4.82,9.05.37,1.17.78,2.33,1.06,3.52.44,1.91,1.5,1.94,3,1.12C146.83,40.74,149.51,37.25,149.64,32.13Z"/><path class="cls-3" d="M183.06,10.94c5.82-1.64,11.59-3.49,17.32-5.31s11.78-2.72,17.29-5.4c1.93-.94,3.58,1.2,4.18,2.66a111.22,111.22,0,0,1,3.38,10.72c.32,1,0,1.58-1.12,1.55-1.7-.05-3.84.49-4.16-2-.31-2.34-1.71-4.24-2.12-6.51-.19-1-.69-1.67-2-1a20.86,20.86,0,0,1-7.32,2c-3.36.49-3.9,1.5-2.46,4.44.25.51,1,.83.56,1.59-.6,1.1-1.24,0-1.86.05-.82,0-1.65,0-2.48,0-3.56,0-7.17.39-10.55-1.17-2.76-1.18-5.65-.31-8.47-.54C181.51,11.92,182.85,11.37,183.06,10.94Z"/><path class="cls-1" d="M153.28,156.82A10.74,10.74,0,0,1,163.71,146c3,0,4.82,1.72,6.24,3.81,2,2.91,1.36,5.92-.81,8.52a62.37,62.37,0,0,1-4.58,4.62c-2.36,2.29-6.66,2.32-8.79-.14C154.28,161.06,152.35,159.36,153.28,156.82Z"/><path class="cls-3" d="M189.07,34.37c-3.08-1.49-4.12-4.66-2-7a23.2,23.2,0,0,1,5-3.9c1-.65,1.58.35,2.13,1.16,1.28,1.92,4.93,2.3,3.81,5.76-.19.6-.44,1.46-1.37,1.48a1.63,1.63,0,0,1-1.71-1.47,3.54,3.54,0,0,0-1.08-1.82c-.68-.7-1.44-1.31-2.43-.78A2.51,2.51,0,0,0,189.93,30c-.05,1.25.94,2.25,1.7,2.14,1.4-.22,2,1,3.05,1.14C193.17,35.36,190.92,33.91,189.07,34.37Z"/><path class="cls-4" d="M183.06,10.94c-.21.43-1.55,1,.24,1.13,2.82.23,5.71-.64,8.47.54-3.06,0-6.12.07-9.18,0-.72,0-2,.35-1.8-.92S181.93,10.15,183.06,10.94Z"/><path class="cls-4" d="M213.17,17.13c-3.43-.41-6.94.52-10.33-.62C206.29,16.68,209.81,15.55,213.17,17.13Z"/><path class="cls-4" d="M188.9,15.27l-10.32-.19C182,14.37,185.48,14,188.9,15.27Z"/><path class="cls-4" d="M223.72,17.69c-3.18-.18-6.38.35-9.53-.36,3.17-.62,6.38-.18,9.57-.21.07,0,.21.13.2.15A4.19,4.19,0,0,1,223.72,17.69Z"/><path class="cls-4" d="M176,14.62c-3.24-.36-6.54.53-9.73-.55C169.48,14.11,172.79,13.15,176,14.62Z"/><path class="cls-4" d="M200.21,16.44c-3.23-.44-6.56.62-9.74-.63C193.72,15.91,197.05,15,200.21,16.44Z"/><path class="cls-4" d="M155.67,20.7c-.13,3.32.59,6.68-.43,10C155.16,27.33,154.61,24,155.67,20.7Z"/><path class="cls-5" d="M124.61,108.77l.71.61C124.58,109.76,124.66,109.19,124.61,108.77Z"/><path class="cls-5" d="M186.15,67.86c-.19-.22-.39-.44-.58-.67C186,67.22,186.13,67.49,186.15,67.86Z"/><path class="cls-5" d="M227.24,126.12l-.66-.77Z"/><path class="cls-5" d="M134,52.35l-.71.62Z"/><path class="cls-5" d="M173.14,62.93l.73-.64Z"/><path class="cls-5" d="M231.6,129.83l-.66-.66Z"/></g></g></svg>