<?xml version="1.0" encoding="UTF-8" standalone="no"?><svg width="1910" height="715" viewBox="0 0 1910 715" fill="none" xmlns="http://www.w3.org/2000/svg">
<g clip-path="url(#clip0_8580_911)">
<rect width="1920" height="715" fill="white"/>
<circle cx="1133.5" cy="460.5" r="2.75" fill="#4EC8ED" stroke="url(#paint0_linear_8580_911)" stroke-width="1.5"/>
<path fill-rule="evenodd" clip-rule="evenodd" d="M1959.59 249.273L1962.61 252.771L1965.99 256.33L1969.72 259.96L1973.77 263.67L1978.14 267.469L1982.8 271.366L1987.72 275.369L1992.9 279.484L1998.3 283.718L2003.91 288.076L2009.7 292.563L2015.65 297.182L2021.74 301.939L2027.94 306.834L2034.24 311.87L2040.6 317.049L2047.02 322.371L2053.45 327.836L2059.89 333.442L2066.31 339.188L2072.69 345.072L2078.99 351.089L2085.19 357.234L2091.27 363.501L2097.19 369.884L2102.93 376.375L2108.48 382.965L2113.8 389.649L2118.89 396.417L2123.72 403.262L2128.28 410.174L2132.57 417.146L2136.56 424.17L2140.24 431.235L2143.62 438.333L2146.68 445.457L2149.4 452.596L2151.8 459.742L2153.86 466.887L2155.58 474.021L2156.96 481.135L2157.99 488.222L2158.67 495.272L2159 502.276L2158.98 509.228L2158.62 516.117L2157.9 522.936L2156.84 529.677L2155.44 536.333L2153.69 542.895L2151.61 549.356L2149.2 555.71L2146.45 561.948L2143.39 568.064L2140 574.053L2136.31 579.906L2132.31 585.62L2128.01 591.188L2123.42 596.605L2118.55 601.867L2113.41 606.967L2107.99 611.904L2102.33 616.672L2096.41 621.268L2090.26 625.69L2083.88 629.934L2077.28 633.998L2070.48 637.882L2063.48 641.582L2056.29 645.099L2048.92 648.431L2041.39 651.578L2033.7 654.541L2025.88 657.32L2017.91 659.915L2009.83 662.328L2001.63 664.56L1993.33 666.612L1984.94 668.487L1976.46 670.186L1967.91 671.712L1959.3 673.067L1950.64 674.253L1941.92 675.272L1933.17 676.127L1924.39 676.819L1915.59 677.351L1906.76 677.724L1897.93 677.94L1889.1 678L1880.26 677.905L1871.43 677.656L1862.61 677.252L1853.81 676.693L1845.03 675.979L1836.27 675.109L1827.54 674.081L1818.84 672.893L1810.17 671.542L1801.54 670.028L1792.96 668.346L1784.41 666.496L1775.92 664.473L1767.48 662.278L1759.1 659.907L1750.78 657.362L1742.54 654.642L1734.36 651.75L1726.27 648.691L1718.27 645.471L1710.37 642.099L1702.58 638.589L1694.9 634.958L1687.35 631.225L1679.93 627.411L1672.65 623.535L1665.52 619.619L1658.54 615.681L1651.71 611.739L1645.03 607.812L1638.51 603.915L1632.14 600.064L1625.93 596.271L1619.86 592.549L1613.93 588.907L1608.15 585.355L1602.49 581.9L1596.97 578.546L1591.57 575.299L1586.28 572.161L1581.1 569.133L1576.02 566.217L1571.04 563.411L1566.15 560.714L1561.34 558.123L1556.61 555.636L1551.94 553.248L1547.34 550.956L1542.8 548.755L1538.32 546.641L1533.88 544.609L1529.49 542.655L1525.14 540.773L1520.83 538.961L1516.55 537.212L1512.3 535.525L1508.08 533.895L1503.88 532.319L1499.7 530.796L1495.54 529.322L1491.39 527.897L1487.26 526.519L1483.13 525.188L1479.01 523.904L1474.89 522.666L1470.76 521.477L1466.63 520.336L1462.49 519.246L1458.34 518.209L1454.16 517.225L1449.96 516.299L1445.73 515.431L1441.46 514.626L1437.16 513.884L1432.8 513.21L1428.39 512.605L1423.92 512.073L1419.38 511.615L1414.77 511.233L1410.07 510.93L1405.29 510.707L1400.4 510.566L1395.42 510.507L1390.32 510.532L1385.1 510.64L1379.75 510.832L1374.27 511.107L1368.65 511.463L1362.88 511.9L1356.95 512.415L1350.87 513.007L1344.61 513.671L1338.18 514.405L1331.57 515.204L1324.78 516.064L1317.8 516.981L1310.63 517.947L1303.26 518.958L1295.69 520.006L1287.93 521.084L1279.97 522.184L1271.81 523.297L1263.46 524.415L1254.91 525.528L1246.17 526.624L1237.26 527.692L1228.17 528.721L1218.91 529.698L1209.5 530.609L1199.96 531.44L1190.3 532.175L1180.53 532.8L1170.68 533.296L1160.78 533.65L1150.85 533.846L1140.9 533.872L1130.97 533.716L1121.07 533.366L1111.23 532.816L1101.46 532.056L1091.8 531.081L1082.25 529.887L1072.84 528.47L1063.58 526.829L1054.49 524.963L1045.58 522.872L1036.87 520.56L1028.37 518.028L1020.08 515.28L1012.02 512.322L1004.19 509.158L996.604 505.794L989.257 502.238L982.158 498.496L975.307 494.576L968.705 490.486L962.353 486.232L956.25 481.825L950.395 477.27L944.783 472.577L939.414 467.754L934.283 462.808L929.386 457.747L924.719 452.578L920.277 447.31L916.057 441.947L912.053 436.498L908.262 430.968L904.679 425.364L901.299 419.69L898.121 413.953L895.14 408.157L892.354 402.307L889.762 396.407L887.361 390.461L885.151 384.474L883.133 378.449L881.307 372.388L879.676 366.297L878.24 360.177L877.005 354.032L875.974 347.866L875.152 341.681L874.544 335.48L874.158 329.267L874 323.045L874.078 316.818L874.4 310.589L874.976 304.363L875.813 298.145L876.923 291.938L878.313 285.747L879.994 279.578L881.975 273.437L884.265 267.33L886.874 261.262L889.809 255.241L893.079 249.273L896.689 243.366L900.647 237.527L904.956 231.764L909.619 226.085L914.639 220.497L920.016 215.01L925.748 209.631L931.832 204.367L938.262 199.226L945.03 194.217L952.127 189.345L959.54 184.618L967.256 180.041L975.257 175.619L983.524 171.358L992.035 167.259L1000.77 163.327L1009.7 159.562L1018.79 155.964L1028.03 152.534L1037.37 149.268L1046.8 146.163L1056.26 143.215L1065.74 140.419L1075.2 137.768L1084.63 135.256L1093.98 132.874L1103.23 130.615L1112.36 128.47L1121.35 126.428L1130.16 124.478L1138.79 122.611L1147.19 120.813L1155.37 119.074L1163.3 117.38L1170.95 115.719L1178.33 114.079L1185.41 112.445L1192.19 110.805L1198.65 109.147L1204.79 107.456L1210.6 105.721L1216.07 103.929L1221.21 102.068L1226.02 100.128L1230.5 98.0965L1234.65 95.9642L1238.47 93.7217L1241.98 91.3602L1245.19 88.8722L1248.1 86.2506L1250.72 83.4898L1253.08 80.5849L1255.18 77.5321L1257.04 74.3287L1258.68 70.9733L1260.12 67.4652L1261.38 63.8053L1262.47 59.9952L1263.41 56.038L1264.24 51.9377L1264.96 47.6994L1265.6 43.3293L1266.18 38.8346L1266.72 34.2234L1267.25 29.505L1267.78 24.689L1268.33 19.7865L1268.92 14.8086L1269.58 9.76764L1270.32 4.67616L1271.15 -0.452713L1272.1 -5.60551L1273.18 -10.7685L1274.39 -15.9277L1275.77 -21.0692L1277.31 -26.1791L1279.02 -31.2436L1280.92 -36.2491L1283.01 -41.1827L1285.3 -46.0317L1287.79 -50.784L1290.48 -55.4286L1293.38 -59.9549L1296.48 -64.3534L1299.79 -68.6158L1303.3 -72.7348L1307 -76.7043L1310.9 -80.5196L1314.97 -84.1773L1319.23 -87.6756L1323.65 -91.014L1328.23 -94.1937L1332.96 -97.2173L1337.82 -100.089L1342.81 -102.815L1347.91 -105.401L1353.12 -107.858L1358.42 -110.194L1363.8 -112.421L1369.25 -114.551L1374.75 -116.597L1380.3 -118.573L1385.9 -120.493L1391.52 -122.371L1397.17 -124.221L1402.84 -126.057L1408.52 -127.89L1414.21 -129.731L1419.92 -131.589L1425.63 -133.469L1431.36 -135.375L1437.1 -137.305L1442.87 -139.252L1448.66 -141.21L1454.48 -143.166L1460.33 -145.107L1466.23 -147.018L1472.17 -148.883L1478.15 -150.686L1484.19 -152.409L1490.28 -154.037L1496.41 -155.552L1502.6 -156.94L1508.83 -158.185L1515.1 -159.274L1521.41 -160.195L1527.76 -160.936L1534.13 -161.489L1540.52 -161.846L1546.93 -162L1553.34 -161.947L1559.75 -161.683L1566.15 -161.208L1572.53 -160.522L1578.89 -159.626L1585.21 -158.524L1591.49 -157.22L1597.72 -155.719L1603.9 -154.03L1610.01 -152.161L1616.06 -150.119L1622.03 -147.917L1627.93 -145.563L1633.74 -143.071L1639.47 -140.452L1645.11 -137.719L1650.67 -134.884L1656.14 -131.962L1661.52 -128.965L1666.82 -125.907L1672.03 -122.801L1677.16 -119.661L1682.22 -116.5L1687.2 -113.332L1692.11 -110.167L1696.96 -107.02L1701.75 -103.9L1706.5 -100.821L1711.2 -97.791L1715.87 -94.8214L1720.52 -91.921L1725.15 -89.0984L1729.77 -86.3612L1734.39 -83.7163L1739.02 -81.1699L1743.67 -78.7271L1748.35 -76.3922L1753.06 -74.1686L1757.82 -72.0588L1762.64 -70.0642L1767.52 -68.1855L1772.48 -66.4224L1777.51 -64.7733L1782.63 -63.2362L1787.84 -61.8077L1793.15 -60.4838L1798.56 -59.2594L1804.07 -58.1287L1809.7 -57.0848L1815.44 -56.1203L1821.29 -55.2269L1827.25 -54.3955L1833.33 -53.6166L1839.51 -52.8798L1845.8 -52.1744L1852.19 -51.4893L1858.68 -50.8129L1865.25 -50.1333L1871.9 -49.4387L1878.63 -48.7169L1885.41 -47.956L1892.25 -47.1442L1899.12 -46.2699L1906.02 -45.322L1912.93 -44.2899L1919.84 -43.1637L1926.74 -41.9341L1933.61 -40.5931L1940.44 -39.1333L1947.21 -37.5489L1953.92 -35.835L1960.55 -33.987L1967.09 -32.0001L1973.53 -29.8688L1979.84 -27.5878L1986.01 -25.1514L1992.02 -22.5542L1997.84 -19.7914L2003.48 -16.8584L2008.89 -13.7513L2014.06 -10.4671L2018.96 -7.00349L2023.59 -3.3593L2027.92 0.465698L2031.93 4.47058L2035.6 8.65327L2038.91 13.0105L2041.86 17.5379L2044.43 22.2297L2046.61 27.0792L2048.38 32.0785L2049.74 37.2185L2050.7 42.4893L2051.23 47.8799L2051.35 53.3785L2051.05 58.9725L2050.35 64.6488L2049.25 70.3937L2047.76 76.1931L2045.9 82.0327L2043.67 87.8978L2041.11 93.7741L2038.22 99.6472L2035.04 105.503L2031.59 111.327L2027.89 117.107L2023.98 122.831L2019.88 128.485L2015.63 134.06L2011.26 139.545L2006.81 144.932L2002.31 150.212L1997.79 155.379L1993.29 160.427L1988.85 165.353L1984.5 170.152L1980.27 174.825L1976.2 179.371L1972.32 183.79L1968.67 188.085L1965.26 192.26L1962.12 196.319L1959.29 200.269L1956.79 204.116L1954.63 207.868L1952.83 211.534L1951.41 215.124L1950.38 218.647L1949.76 222.115L1949.55 225.54L1949.75 228.932L1950.37 232.303L1951.4 235.666L1952.84 239.033L1954.7 242.415L1956.95 245.824L1959.59 249.273Z" fill="#E6F7FC"/>
</g>
<defs>
<linearGradient id="paint0_linear_8580_911" x1="1130" y1="460.5" x2="1137" y2="460.5" gradientUnits="userSpaceOnUse">
<stop stop-color="#303030"/>
</linearGradient>
<clipPath id="clip0_8580_911">
<rect width="1920" height="715" fill="white"/>
</clipPath>
</defs>
</svg>
